<?xml version="1.0" encoding="utf-8"?>
<!-- Generator: Adobe Illustrator 26.5.2, SVG Export Plug-In . SVG Version: 6.00 Build 0)  -->
<svg version="1.1" id="Layer_1" xmlns="http://www.w3.org/2000/svg" xmlns:xlink="http://www.w3.org/1999/xlink" x="0px" y="0px"
	 viewBox="0 0 1708 720" style="enable-background:new 0 0 1708 720;" xml:space="preserve">
<style type="text/css">
	.st0{fill:#EF5354;}
	.st1{opacity:0.3;fill:#90CA77;enable-background:new    ;}
	.st2{fill:#F5BB47;}
	.st3{fill:#013149;}
	.st4{fill:#10B3BE;}
	.st5{fill:#0780AA;}
	.st6{fill:#F5D486;}
	.st7{fill:#EF5656;}
	.st8{fill:#BA3B3B;}
	.st9{fill:#FFFFFF;}
	.st10{fill:#90CA77;}
	.st11{opacity:0.2;fill:#10B3BE;enable-background:new    ;}
	.st12{opacity:0.1;fill:#E2097E;enable-background:new    ;}
	.st13{fill:#0A5D8F;}
	.st14{fill:#E2E2E2;}
	.st15{fill:#AFAFAF;}
	.st16{opacity:0.5;fill:#AFAFAF;enable-background:new    ;}
	.st17{fill:#B03837;}
	.st18{fill:#44B660;}
	.st19{fill:#424243;}
</style>
<rect x="-0.1" y="-0.2" class="st0" width="1707.8" height="720"/>
<g>
	<path class="st1" d="M368,175.3c0,0,49.3-48.4,90.2-21.1s40.9,46.9,69.1,51.1c28.2,4.2,86.1-26.4,116.8,11.9
		s-38.4,148.3-20.5,173.9c17.9,25.6,65.6-2.6,69,53.7s-76.7,69-75,92.9s22.2,45.2-6,55.4c-28.1,10.2-228.5,13.6-228.5,13.6
		l-188.4-9.4c0,0-97.2-58.8-92.1-130.4s95.5-87.8,82.7-139c-12.8-51.1-59.7-74.2-34.9-104.9c28.7-35.6,86.1,15.3,124.5-4.3
		c33.5-17.1,8-48.1,45.8-59.9C358.5,147.3,368,175.3,368,175.3L368,175.3z"/>
	<g>
		<path class="st2" d="M189.7,570.2h355.5c0,0,129.6-6.8,144.9,20.5c15.3,27.3-152.6,25.6-157.7,41.8s81,28.1,81,45.2
			s-42.6,11.9-231.9,13.6c-90.4,0.8-169.2,6.4-169.2-7.7s61.8-13.6,64.4-27.3c2.6-13.6-173.1-4.3-173.1-21.3s44.3,0.8,46-16.2
			s-75-7.7-70.8-29C83.2,568.5,189.7,570.2,189.7,570.2L189.7,570.2z"/>
		<path class="st3" d="M269.8,693.8c-30.6,0-51.2-1.4-56.7-6.8c-1-1-1.5-2.1-1.5-3.4c0-7.8,15.9-11.1,32.7-14.7
			c15-3.2,30.5-6.5,31.7-12.7c0-0.2,0-0.4-0.2-0.8c-4-5-41.4-6.3-77.6-7.5c-57.6-1.9-95.3-3.9-95.3-12.9c0-2.2,0.7-4,2.1-5.4
			c3.8-3.8,12.2-3.6,21-3.5c10.9,0.2,22.1,0.4,22.9-7.4c0.7-7.3-16.1-9.5-32.4-11.6c-15.8-2.1-32.1-4.2-37-11
			c-1.3-1.9-1.8-4-1.3-6.4c4.3-21.7,107.1-20.3,111.6-20.2h355.5c5.3-0.3,130.2-6.5,145.6,20.8c1.3,2.3,1.4,4.6,0.4,6.7
			c-6,11.8-49.2,16.8-91,21.7c-32,3.7-65,7.6-67,14c-2.4,7.5,18.6,14.7,38.9,21.6c21.7,7.4,42.1,14.4,42.1,23.3
			c0,13.8-23.7,13.9-123.3,14c-29.1,0-65.4,0-109.3,0.5c-19.7,0.2-38.5,0.6-56.7,1C304.3,693.4,285.7,693.8,269.8,693.8L269.8,693.8
			z M120.8,627.6c-6.3,0-12.1,0.5-14.8,3.1c-1.1,1.1-1.7,2.5-1.7,4.3c0,2.4,5.1,5.8,29.4,8.1c17.9,1.7,41.5,2.5,64.4,3.3
			c39.8,1.3,74.2,2.5,78.7,8c0.5,0.6,0.7,1.3,0.5,2c-1.4,7.2-16.7,10.5-32.9,13.9c-15.5,3.3-31.5,6.7-31.5,13.2
			c0,0.8,0.4,1.6,1.1,2.3c7.9,7.7,53.2,6.8,110.6,5.6c18.2-0.4,37-0.8,56.7-1c43.9-0.4,80.2-0.4,109.3-0.5
			c96-0.1,121.8-0.1,121.8-12.4c0-7.9-20.9-15-41.1-21.9c-21.9-7.5-42.7-14.6-39.8-23.5c2.3-7.3,32.9-10.9,68.3-15
			c39.5-4.6,84.2-9.8,89.8-20.9c0.8-1.7,0.7-3.4-0.3-5.3c-14.9-26.6-142.9-20.1-144.2-20.1H189.7l0,0c-0.3,0-26.9-0.4-53.8,1.8
			c-35.2,2.9-54.7,8.8-56.3,17.2c-0.4,2-0.1,3.7,1.1,5.2c4.5,6.3,20.5,8.4,36,10.4c17.8,2.3,34.6,4.5,33.7,13.3
			c-0.9,9.2-12.9,9-24.4,8.8C124.3,627.6,122.6,627.5,120.8,627.6L120.8,627.6z"/>
	</g>
	<g>
		<g>
			<path class="st4" d="M465.7,339.8c0,0,17.9-0.6,28.1,1.3s20.5,3.8,20.5,3.8l-36.4,233.4c0,0-200.8,7.7-200.8,5.1s-4.5-71-7-111.2
				c-2.6-40.3-1.3-88.2-1.3-88.2l-7.7-46c0,0,20.5-5.8,28.1-6.4l7.7-0.6L465.7,339.8L465.7,339.8z"/>
			<path class="st3" d="M297,332.4l168.7,9h0.1h0.1c0,0,2.9-0.1,6.9-0.1c6.2,0,14.9,0.2,20.9,1.4l19,3.6l-36,230.7
				c-14.4,0.5-148.8,5.6-188.3,5.6c-5.9,0-8.5-0.1-9.7-0.2c-0.3-6.4-2.2-36-4.2-67.1c-1-15.2-2-30.5-2.8-43
				c-2.5-39.8-1.3-87.6-1.3-88.1v-0.1V384l-7.5-44.7c4.6-1.3,20.2-5.5,26.5-6L297,332.4 M296.9,330.9l-7.7,0.6
				c-7.7,0.6-28.1,6.4-28.1,6.4l7.7,46c0,0-1.3,48,1.3,88.2s7,108.7,7,111.3c0,0.4,4.1,0.5,11.1,0.5c42.1,0,189.6-5.6,189.6-5.6
				l36.4-233.4c0,0-10.2-1.9-20.5-3.8c-6.1-1.1-15-1.4-21.2-1.4c-4.1,0-7,0.1-7,0.1L296.9,330.9L296.9,330.9L296.9,330.9z"/>
		</g>
		<g>
			<path class="st5" d="M522.6,541.2c0,0,14.7-97.8,14.7-140s-8.3-58.2-23-56.3c-14.7,1.9-39.6,40.3-46,71s-5.1,69.1-5.1,69.1
				L522.6,541.2z"/>
			<path class="st3" d="M516.6,346.3c12.9,0,19.2,18,19.2,54.9S524,521.6,521.6,538.1l-56.9-53.8c-0.1-5-0.7-40,5.1-68.1
				c3-14.2,10.3-31.3,19.7-45.8c9.1-14,18.7-23.2,25.1-24C515.2,346.3,515.9,346.3,516.6,346.3 M516.6,344.7c-0.7,0-1.5,0-2.3,0.1
				c-14.7,1.9-39.6,40.3-46,71s-5.1,69.1-5.1,69.1l59.5,56.3c0,0,14.7-97.8,14.7-140C537.4,361.2,529.9,344.7,516.6,344.7
				L516.6,344.7L516.6,344.7z"/>
		</g>
		<g>
			<path class="st5" d="M262.2,337.4c0,0-18.3,14.5-35.6,54.1s-26.9,81.2-26.9,81.2l71.6,16.6l1.8-96.4c0.1-4.2-0.4-8.5-1.3-12.6
				L262.2,337.4L262.2,337.4z"/>
			<path class="st3" d="M261.3,340.3l9.1,40.4c0.9,4,1.3,8.1,1.2,12.2l-1.8,94.6l-68.3-15.9c1.9-7.7,11.2-44.6,26.4-79.5
				C241.7,360.6,256.3,345.1,261.3,340.3 M262.2,337.4c0,0-18.3,14.5-35.6,54.1s-26.9,81.2-26.9,81.2l71.6,16.6l1.8-96.4
				c0.1-4.2-0.4-8.5-1.3-12.6L262.2,337.4L262.2,337.4L262.2,337.4z"/>
		</g>
		<g>
			<g>
				<path class="st6" d="M444,336c-15.1-5.2-22.1-12.5-24.2-15.1c-1.6-12.3,1.7-26.9,1.7-26.9l-79.6,5.2c0,0,5.3,4.9,6.6,14.4
					c0,0-1.4,10.6-16.1,15.1s-32.4,3.1-32.4,3.1s11.1,63.8,75,67.5c66.5,3.8,90.4-58.1,90.4-58.1S453,339,444,336L444,336z"/>
				<path class="st3" d="M380.7,400.5c-1.9,0-3.9-0.1-5.9-0.2c-33.4-1.9-52.3-20.4-62.2-35.6c-10.8-16.4-13.7-32.6-13.7-32.8
					l-0.2-1.4l1.4,0.1c0.2,0,17.7,1.3,32-3.1c13.1-4,15.1-12.8,15.4-14.1c-1.3-8.8-6.2-13.5-6.3-13.5l-1.9-1.7l2.5-0.2l81-5.2
					l-0.3,1.4c0,0.1-3.2,14.2-1.7,26.1c2.5,2.9,9.3,9.6,23.5,14.5l0,0c8.8,3,21.1,5.1,21.2,5.1l1.3,0.2l-0.5,1.2
					c-0.1,0.2-6.2,15.9-20.5,30.9C433.4,385.5,412.3,400.5,380.7,400.5L380.7,400.5z M301.3,332.9c0.9,4.2,4.4,17.3,13.1,30.7
					c9.7,14.7,28,32.7,60.5,34.6c33.9,2,56.4-13.7,69.2-27.2c11.7-12.3,17.9-25,19.6-29c-3.5-0.6-13-2.5-20.2-5l0,0
					c-15.1-5.2-22.3-12.5-24.7-15.4l-0.2-0.2v-0.3c-1.4-10.3,0.6-21.8,1.4-25.8l-75.9,4.9c1.8,2.3,4.5,6.7,5.4,13.3v0.1v0.1
					c-0.1,0.5-1.7,11.4-16.9,16C320.2,333.5,305.9,333.2,301.3,332.9L301.3,332.9z"/>
			</g>
			<path class="st3" d="M341.9,299.2l79.6-5.2c0,0-16,49.4-36.9,51.1s-36-31.6-36-31.6L341.9,299.2L341.9,299.2z"/>
		</g>
		<g>
			<path class="st3" d="M314,222.1c0,0-20,0-23.9-10c-3.8-10,0.2-15.4,0.2-15.4s-11-2.2-11.4-12.4s3.8-18.2,3.8-18.2
				s-11.1-8.4-10.8-17.9c0.5-14.1,12.8-19.5,12.8-19.5s-10.5-14.1,2.2-22.9s25.5,1.1,25.5,1.1s-6.9-19.5,8.2-22.7s25.1,1.9,25.1,1.9
				s16.1-16.8,30.6-16.6s20.1,18.3,20.1,18.3s15-10.9,30.8-3c15.9,7.9,12.5,16.7,12.5,16.7s28.4-5.6,39,5.1s1.3,20.5,1.3,20.5
				s21-2.9,25.4,14.7s-7.8,23.1-7.8,23.1s9.9,17.9,1.3,30.3c-8.6,12.4-17.1,11.2-17.1,11.2s2.1,9.9-7.3,21s-31.2,11.1-31.2,11.1
				L314,222.1L314,222.1z"/>
			<g>
				<path class="st7" d="M318.9,269.7c-5.6,1.4-12.9-8.9-16.3-22.8c-3.4-14-1.5-26.4,4.1-27.7l10.3-1.3l10.8,50.7L318.9,269.7
					L318.9,269.7z"/>
				<path class="st3" d="M317.9,270.5c-5.9,0-12.7-9.9-16-23.5c-1.6-6.8-2.1-13.5-1.3-18.9c0.8-5.6,3-9,6-9.8h0.1L317,217
					c0.4-0.1,0.8,0.2,0.8,0.6l10.8,50.7c0,0.2,0,0.4-0.1,0.6s-0.3,0.3-0.5,0.3l-8.9,1.1C318.7,270.5,318.3,270.5,317.9,270.5
					L317.9,270.5z M306.9,219.9c-2.4,0.6-4.1,3.7-4.8,8.5c-0.8,5.1-0.3,11.6,1.3,18.3c3.2,13.3,10.2,23.5,15.4,22.3h0.1l8.1-1
					l-10.5-49.2L306.9,219.9L306.9,219.9z"/>
			</g>
			<g>
				
					<ellipse transform="matrix(0.9722 -0.2341 0.2341 0.9722 -48.0145 82.0915)" class="st8" cx="321.8" cy="243.3" rx="10.5" ry="26"/>
				<path class="st3" d="M326.8,269.5c-5.9,0-12.7-9.9-16-23.5c-3.5-14.6-1.5-27.2,4.7-28.6s13.7,8.8,17.2,23.4
					c3.5,14.6,1.5,27.2-4.7,28.6C327.6,269.4,327.2,269.5,326.8,269.5z M316.7,218.7c-0.3,0-0.6,0-0.9,0.1
					c-5.1,1.2-6.8,13.5-3.5,26.8c3.2,13.3,10.2,23.5,15.4,22.3c5.1-1.2,6.8-13.5,3.5-26.8C328.2,228.5,321.8,218.7,316.7,218.7
					L316.7,218.7z"/>
			</g>
			<g>
				<path class="st6" d="M317.2,186.4c0,0-2,37,0.6,46.9S323,251,323,251s0.4,15.9,6,28.4c16,35.2,47.6,45.1,47.6,45.1
					s27.8-10.8,44.8-30.5s14.6-42.9,14.6-42.9l5.5-49.7L410,152.3l-70.2,14.5L317.2,186.4L317.2,186.4z"/>
				<path class="st3" d="M376.7,325.7l-0.4-0.1c-0.3-0.1-32.2-10.4-48.2-45.7c-5.5-12-6.1-26.8-6.1-28.7c-0.4-1.2-2.8-8.6-5.2-17.6
					c-2.6-10-0.7-45.8-0.6-47.3v-0.5l23.1-20l71.2-14.7l32.2,50.1l-5.5,50c0.2,1.9,1.6,24.5-14.9,43.6c-17,19.7-45,30.7-45.2,30.8
					L376.7,325.7L376.7,325.7z M318.3,186.9c-0.2,4.3-1.8,37.1,0.6,46.2c2.5,9.8,5.2,17.6,5.2,17.6v0.2v0.2c0,0.2,0.4,15.8,6,28
					c14.7,32.4,43,43.2,46.5,44.4c3.3-1.4,28.4-12,44-30.1c16.5-19.1,14.4-41.9,14.4-42.1v-0.1l5.5-49.4l-31-48.2l-69.1,14.3
					L318.3,186.9L318.3,186.9z"/>
			</g>
			<path class="st3" d="M422.6,220.7c0,0-13.1-5.4-23.4-4.7c-5.8,0.4-10,2.6-12.6,4.5c-1.8,1.3-4.3,0.8-5.4-1.1l0,0
				c-1-1.7-0.5-3.9,1.1-5c3.4-2.3,9.7-5.5,17.4-5.2C415.1,209.8,422.6,220.7,422.6,220.7L422.6,220.7z"/>
			<g>
				<path class="st9" d="M385.7,246.9c0,0,6.7-6.8,15-7.7c8.4-0.9,16.5,2.4,16.5,2.4s-4.2,7.5-14.9,9.2S385.7,246.9,385.7,246.9
					L385.7,246.9z"/>
				<path class="st3" d="M398.4,251.9c-8.4,0-13-4.2-13.2-4.4l-0.6-0.5l0.5-0.6c0.3-0.3,7-7,15.5-7.9s16.6,2.3,16.9,2.5l0.8,0.3
					l-0.4,0.7c-0.2,0.3-4.5,7.9-15.4,9.6C401,251.8,399.7,251.9,398.4,251.9L398.4,251.9z M386.9,246.8c1.8,1.3,7.1,4.5,15.4,3.2
					c8.2-1.3,12.5-6.2,13.9-8.1c-2.3-0.8-8.8-2.8-15.3-2C394.3,240.7,388.7,245.2,386.9,246.8L386.9,246.8z"/>
			</g>
			<g>
				<path class="st9" d="M328.7,249.6c0,0,3.4-5.7,13.6-5.5s16.9,5.9,16.9,5.9s-5,3.8-15.8,4.5C335.2,255,328.7,249.6,328.7,249.6
					L328.7,249.6z"/>
				<path class="st3" d="M342.3,255.3c-7.8,0-13.8-4.9-14.1-5.1l-0.5-0.4l0.3-0.6c0.1-0.2,3.7-6,14.3-5.9
					c10.4,0.2,17.1,5.8,17.4,6.1l0.7,0.6l-0.7,0.6c-0.2,0.2-5.3,4-16.2,4.7C343,255.3,342.6,255.3,342.3,255.3L342.3,255.3z
					 M329.7,249.4c1.7,1.2,7.2,4.7,13.6,4.3c8-0.5,12.7-2.8,14.5-3.8c-2-1.4-7.8-4.9-15.6-5.1C334.4,244.7,330.8,248.1,329.7,249.4
					L329.7,249.4z"/>
			</g>
			<path class="st3" d="M318.8,227.2c0,0,11-5.5,18.4-6.2s12,2.1,12,2.1c1.9,0.3,3.7-0.7,4.4-2.5l0,0c0.9-2.3-0.5-4.8-2.8-5.3
				c-4.1-1-10.7-1.8-17.4,0.4C322.6,219.2,318.8,227.2,318.8,227.2L318.8,227.2z"/>
			<path class="st3" d="M364.9,277c-2.6,0-4.6-0.6-4.8-0.7l-0.6-0.2l4.5-22.9l1.5,0.3l-4.2,21.5c1.4,0.3,4.7,0.9,7.6-0.2
				c3.9-1.5,6.5-3.8,6.5-3.8l1,1.1c-0.1,0.1-2.8,2.6-7,4.1C367.9,276.9,366.3,277.1,364.9,277L364.9,277z"/>
			<g>
				<path class="st7" d="M367.1,290.8c0,0-0.5-3.9,4.6-5.1c9.3-2.2,13,1.1,17.9,0.3s8-3.2,8-3.2s-3.1,7.5-16.7,9.4
					C367.3,293.9,367.1,290.8,367.1,290.8L367.1,290.8z"/>
				<path class="st3" d="M373.7,293.4c-3.2,0-5.4-0.5-6.5-1.4c-0.7-0.5-0.7-1.1-0.8-1.2c0-0.5-0.2-4.6,5.2-5.9
					c5.7-1.4,9.5-0.7,12.5-0.1c2,0.4,3.6,0.7,5.4,0.4c4.6-0.8,7.7-3.1,7.7-3.1c0.3-0.2,0.6-0.2,0.9,0s0.4,0.6,0.2,0.9
					c-0.1,0.3-3.4,8-17.3,9.9C378.2,293.2,375.7,293.4,373.7,293.4L373.7,293.4z M367.9,290.6c0.1,0.2,1.6,2.2,13,0.7
					c7.8-1.1,12-4,14.1-6.3c-1.4,0.6-3.2,1.3-5.3,1.6c-2.1,0.3-4,0-6-0.4c-3-0.6-6.4-1.2-11.9,0.1
					C367.7,287.4,367.9,290.3,367.9,290.6L367.9,290.6z M367.9,290.7L367.9,290.7L367.9,290.7z"/>
			</g>
			<g>
				<path class="st7" d="M370.7,292.9c0,0,3,5.9,7.7,6.4c12.1,1.3,17.2-13.5,17.2-13.5s-7,4.9-14.6,6.2
					C373.2,293.4,370.7,292.9,370.7,292.9z"/>
				<path class="st3" d="M379.9,300.2c-0.5,0-1,0-1.5-0.1c-5-0.5-8.1-6.6-8.3-6.8s-0.1-0.6,0.1-0.8c0.2-0.2,0.5-0.3,0.7-0.3
					c0,0,2.6,0.4,10-0.8c7.4-1.3,14.3-6,14.4-6.1c0.3-0.2,0.6-0.2,0.9,0s0.4,0.5,0.3,0.9C396.3,286.3,391.3,300.2,379.9,300.2
					L379.9,300.2z M372.1,293.8c1.1,1.7,3.4,4.5,6.4,4.8c8.5,0.9,13.5-6.8,15.4-10.8c-2.7,1.6-7.5,4.1-12.8,5
					C376.5,293.6,373.7,293.8,372.1,293.8L372.1,293.8z"/>
			</g>
			<g>
				<path class="st10" d="M333.6,252.1c0,0,1.5-5.5,7.9-5.4s8.7,6.8,8.7,6.8s-4.1,1.1-9.2,0.7C335.9,253.7,333.6,252.1,333.6,252.1
					L333.6,252.1z"/>
				<path class="st3" d="M343.4,254.7c-0.8,0-1.6,0-2.5-0.1c-5.2-0.4-7.5-2-7.6-2.1l-0.3-0.2l0.1-0.3c0-0.1,1.7-5.8,8.3-5.8h0.1
					c6.7,0.1,9.1,7,9.1,7.1l0.2,0.5l-0.5,0.1C350.2,254,347.4,254.7,343.4,254.7L343.4,254.7z M334.2,251.9c0.8,0.4,3,1.4,6.8,1.8
					c3.9,0.3,7.2-0.3,8.5-0.5c-0.7-1.5-3-5.9-8-5.9h-0.1C336.4,247.2,334.7,250.8,334.2,251.9L334.2,251.9z"/>
			</g>
			<g>
				<path class="st10" d="M391.6,249.7c0,0,1.5-6.1,9-6.9s9.6,5.5,9.6,5.5s-3.9,2.4-10.1,3S391.6,249.7,391.6,249.7L391.6,249.7z"/>
				<path class="st3" d="M398,251.9c-4.8,0-6.7-1.8-6.8-1.9l-0.2-0.2l0.1-0.3c0-0.1,1.7-6.5,9.5-7.2c7.8-0.8,10.1,5.8,10.1,5.9
					l0.1,0.4l-0.3,0.2c-0.2,0.1-4.1,2.5-10.4,3.1C399.3,251.9,398.6,251.9,398,251.9L398,251.9z M392.1,249.5c0.7,0.5,3,1.8,7.8,1.3
					c5-0.5,8.5-2.1,9.6-2.7c-0.6-1.3-2.9-5.4-8.9-4.8C394.5,243.9,392.5,248.3,392.1,249.5L392.1,249.5z"/>
			</g>
			<g>
				<path class="st7" d="M457.6,212.4c0.2-1.8,0.4-3.7,0.4-5.5c1.8-41.9-30.7-77.2-72.6-79c-26.4-1.1-50.2,11.4-64.6,31.3
					c14.4-13.5,34-21.5,55.2-20.6c40,1.7,71.5,34.1,72.6,73.5L457.6,212.4z"/>
				<path class="st3" d="M457.6,213.1L457.6,213.1l-9-0.4c-0.4,0-0.7-0.3-0.7-0.7c-1.2-39.1-32.7-71.1-71.9-72.7
					c-20.4-0.9-39.8,6.4-54.7,20.4c-0.3,0.3-0.7,0.3-1,0s-0.3-0.7-0.1-1c15.2-20.9,39.6-32.7,65.3-31.6c20.5,0.9,39.3,9.6,53.2,24.7
					c13.9,15.1,21,34.6,20.1,55.1c-0.1,1.8-0.2,3.7-0.4,5.6C458.3,212.9,458,213.2,457.6,213.1L457.6,213.1z M449.4,211.3l7.5,0.3
					c0.2-1.6,0.3-3.2,0.4-4.8c1.8-41.4-30.5-76.5-71.9-78.2c-22.5-0.9-44,8.2-58.9,24.7c14.2-10.8,31.5-16.3,49.6-15.5
					c19.5,0.8,37.7,8.9,51.4,22.8C440.9,174.2,448.6,192.2,449.4,211.3L449.4,211.3z"/>
			</g>
			<path class="st3" d="M325.9,153.5c0,0-16.7,21.5-18,32.9s-9.7,17.5-2.3,23.4c7.4,5.9,11.5,0.9,11.5,0.9s5.4-5.8,9-11.1
				c3.6-5.4,2.1-9.7,2.1-9.7s7.7,8.9,19.9,3.8c12.2-5,20-18.4,20-18.4s3.9,9.1,14.2,7s11.4-7.2,11.4-7.2s-1.8,12.7,8.7,15.7
				s14.7-3.6,14.7-3.6s-2.7,12.7,5.7,15.6s10.9,4.3,10.9,4.3s-5.8,6.6-2.5,9.7c3.3,3.1,12.2,4.8,12.2,4.8l5.3-9.6c0,0,5.1-16,0-25.6
				s-11.1-10.7-11.1-10.7s-2.7-16.3-12.2-23.1s-15.6-4.9-15.6-4.9s-16.1-12.2-26.3-13.5c-10.2-1.3-15.1,3.6-15.1,3.6
				s-13.6-1.9-21,1.2c-7.4,3.1-13.7,10.9-13.7,10.9L325.9,153.5L325.9,153.5z"/>
			<path class="st11" d="M327.9,168.4c0,0-1.7,20.2,11.4,19.9s29-23.6,29-23.6s1.7,11.9,11.9,11.4c10.2-0.6,13.6-13.4,13.6-13.4
				s-8.8,10.2-14.8,4.8s-8.5-16.2-8.5-16.2s-21.4,26.8-30.7,25.3C329.6,174.9,327.9,168.3,327.9,168.4L327.9,168.4z"/>
			<path class="st11" d="M319.3,194.6c0,0-7.7,9.8-15.3,3s0.9-21.7,0.9-21.7s-12.4,20.5-4.7,29C307.8,213.4,319.3,194.6,319.3,194.6
				L319.3,194.6z"/>
			<path class="st11" d="M291.6,160.6c0,0-8.5-3-5.1-14.1s15.3-8.9,15.3-8.9s-12.8-11.9-5.5-17.9s22.6,1.7,22.6,1.7
				s-16.2-17.9-25.1-11.1c-9,6.8-2.1,22.2-2.1,22.2s-10.8,1.4-13.2,11.9C275,159.3,291.6,160.5,291.6,160.6L291.6,160.6z"/>
			<path class="st12" d="M418.8,261.1c0.3,3.3-4.5,6.4-10.8,6.9s-11.5-1.7-11.8-5s4.5-6.4,10.8-6.9
				C413.3,255.5,418.5,257.8,418.8,261.1z"/>
			<path class="st12" d="M353.2,266.6c-0.3,3.3-5.5,5.5-11.8,5c-6.2-0.5-11-3.6-10.8-6.9c0.3-3.3,5.5-5.5,11.8-5
				C348.6,260.3,353.5,263.4,353.2,266.6z"/>
			<g>
				<path class="st3" d="M347.7,266.7c-8.4,0-18-1.4-21.5-3.4c-1.4-0.8-5.6-3.1-8.3-24.7l0,0c-0.2-1.8,0.3-3.6,1.4-5
					s2.7-2.3,4.5-2.4c4.5-0.4,11.6-0.8,19.4,0.1c12.7,1.4,19.6,2.1,21.8,7.4c1.9,4.5,0.9,21.1-3.8,25.4
					C359.2,265.9,353.8,266.7,347.7,266.7L347.7,266.7z M322.4,238c1.9,15.2,4.7,20.6,6,21.3c5.3,2.9,27,4,29.8,1.4
					c2.9-2.6,4-17.1,2.7-20.4c-1.1-2.6-7.2-3.4-18.1-4.6c-7.5-0.8-14.2-0.5-18.5-0.1c-0.6,0.1-1.1,0.3-1.4,0.8
					C322.4,236.9,322.3,237.5,322.4,238L322.4,238z"/>
				<path class="st3" d="M391.1,265c-1.7,0-3.2-0.1-4.3-0.3c-5.7-1.1-13.3-16.6-14.4-23.5c-0.7-4.1,2-7.9,6-8.6l0,0
					c39.2-7.4,42.4-6.2,43.5-5.8c1.2,0.4,2.1,1.5,2.6,3.1c2.2,6.4-0.8,24.9-3,28.6c-0.6,0.9-2,3.5-16.5,5.4
					C400.6,264.5,395.2,265,391.1,265L391.1,265z M379.2,237c-1.6,0.3-2.7,1.8-2.4,3.4c1.2,7.5,8.4,19.2,10.8,19.8
					c5.3,1,27.5-1.7,30-4.2c1.8-3.3,4.4-22,2.4-25.1C417.8,230.6,405.9,232,379.2,237L379.2,237L379.2,237z M417.7,256L417.7,256
					L417.7,256z"/>
				
					<rect x="363.8" y="242.1" transform="matrix(0.9982 -5.965596e-02 5.965596e-02 0.9982 -13.919 22.4687)" class="st3" width="11.1" height="4.5"/>
				
					<rect x="419.5" y="227.4" transform="matrix(0.7419 -0.6706 0.6706 0.7419 -42.4322 349.0109)" class="st3" width="25.1" height="4.5"/>
			</g>
			<g>
				<path class="st8" d="M439,261.3c-5.8-0.7-9-12.8-7.4-27s7.7-25.3,13.5-24.6l10.1,2.4l-7.5,51.3L439,261.3L439,261.3z"/>
				<path class="st3" d="M447.8,264.1c-0.1,0-0.1,0-0.2,0l-8.7-2.1c-3.1-0.4-5.6-3.6-7.1-9c-1.4-5.2-1.7-11.9-0.9-18.9
					c1.8-14.9,8-26,14.3-25.2h0.1l10.1,2.4c0.4,0.1,0.6,0.5,0.6,0.8l-7.5,51.3c0,0.2-0.1,0.4-0.3,0.5
					C448.1,264.1,447.9,264.1,447.8,264.1L447.8,264.1z M444.6,210.4c-5.1,0-10.6,10.7-12.2,23.9c-0.8,6.8-0.5,13.3,0.9,18.3
					c1.3,4.7,3.4,7.6,5.8,7.9h0.1l7.9,1.9l7.2-49.8l-9.4-2.2C444.9,210.4,444.8,210.4,444.6,210.4L444.6,210.4z"/>
			</g>
			<g>
				
					<ellipse transform="matrix(0.1168 -0.9932 0.9932 0.1168 162.2791 657.5158)" class="st7" cx="450.8" cy="237.5" rx="26" ry="10.5"/>
				<path class="st3" d="M448.3,264.2c-0.2,0-0.4,0-0.6,0c-6.3-0.7-9.8-13-8-27.9c0.8-7,2.7-13.4,5.3-18.2c2.7-4.9,5.9-7.4,9-7.1
					c6.3,0.7,9.8,13,8,27.9C460.3,253.3,454.3,264.2,448.3,264.2L448.3,264.2z M453.4,212.5c-2.3,0-4.9,2.3-7.1,6.3
					c-2.5,4.6-4.3,10.8-5.1,17.6c-1.6,13.6,1.5,25.6,6.7,26.2s11-10.3,12.6-23.9c1.6-13.6-1.5-25.6-6.7-26.2
					C453.6,212.5,453.5,212.5,453.4,212.5z"/>
			</g>
		</g>
		<g>
			<path class="st13" d="M199.8,472.8c0,0,38.3,3.9,44.3-18.3c6-22.2-18.5-22.7-10.2-37.2c8.2-14.5,18.8-7.1,20.7-25
				c2-17.9-11.6-29.8-11.6-29.8s-14.2,23-25,52.6C207.1,444.6,199.8,472.8,199.8,472.8L199.8,472.8z"/>
			<path class="st3" d="M206.6,473.8c-3.9,0-6.6-0.3-6.9-0.3l-0.9-0.1l0.2-0.9c0.1-0.3,7.4-28.6,18.1-57.8
				c10.7-29.3,24.9-52.5,25.1-52.7l0.5-0.8l0.7,0.6c0.1,0.1,13.9,12.4,11.9,30.5c-1.2,10.5-5.2,12.7-9.9,15.2
				c-3.5,1.9-7.4,4-10.9,10.1c-3.6,6.4-0.5,9.8,3.5,14.1c4.5,4.8,10,10.9,6.8,22.9C240.2,471.6,218.1,473.8,206.6,473.8L206.6,473.8
				z M200.7,472.1c5.7,0.4,37.3,1.7,42.6-17.8c3-11.2-2-16.7-6.4-21.5c-4.1-4.4-7.9-8.5-3.7-15.9c3.7-6.5,7.8-8.7,11.5-10.7
				c4.5-2.4,8.1-4.3,9.2-14c1.7-15-8.1-25.9-10.7-28.6c-2.6,4.3-14.9,25.5-24.5,51.6C209,441.6,202,467.1,200.7,472.1L200.7,472.1z"
				/>
		</g>
		<g>
			<path class="st13" d="M482.1,380.9c0,0,27.7,16.2,29.8,42.2c2.1,26-18.3,11.1-19.2,30.3s14.1,18.3,10.2,34.1s-39.9-2.6-39.9-2.6
				s-1.1-27.3,2.8-53.7S482.2,380.9,482.1,380.9L482.1,380.9z"/>
			<path class="st3" d="M492.7,494.6c-11.9,0-29-8.6-29.8-9l-0.4-0.2V485c0-0.3-1-27.6,2.8-53.8c3.8-26.2,16.1-50.3,16.3-50.5
				l0.4-0.7l0.7,0.4c0.3,0.2,28.1,16.7,30.2,42.8c1.2,14.7-4.9,17-10.3,19c-4.6,1.7-8.5,3.2-8.9,11.4c-0.4,9.3,2.9,13.6,6,17.8
				c3.2,4.2,6.2,8.2,4.2,16.5c-0.7,2.7-2.2,4.7-4.7,5.8C497.2,494.3,495.1,494.6,492.7,494.6L492.7,494.6z M463.9,484.5
				c3.2,1.6,25.1,12,34.5,7.6c2.1-1,3.3-2.5,3.9-4.8c1.9-7.6-0.8-11.1-3.9-15.2c-3.2-4.2-6.8-8.9-6.3-18.7c0.4-9.2,5.2-11,9.9-12.8
				c5.4-2,10.4-3.8,9.3-17.4c-1.9-23-24.5-38.5-28.8-41.2c-2.1,4.2-12.4,25.9-15.8,49.3C463.2,455.6,463.8,480.8,463.9,484.5
				L463.9,484.5z"/>
		</g>
		<g>
			<g>
				<path class="st6" d="M364.7,398c0,0,48,111.9,83.8,142.6s67.8,45.4,72.2,29.4c4.5-16,10.9-28.1-12.8-69S396,383.3,396,383.3
					s7.2-50.7-0.6-56.9c-5.3-4.3-38.4-5.1-42.2-1.3c-3.8,3.8-14.7,47.3-9.6,45.4s14.1-26.9,14.1-26.9h8.3c0,0-7.7,23.7-6.4,33.9
					S364.7,398,364.7,398L364.7,398z"/>
				<path class="st3" d="M511.1,577.6c-13.1,0-36.7-13.3-63.3-36.2c-35.6-30.5-83.6-141.9-84-143l0,0c-0.2-0.4-3.9-10.5-5.2-20.7
					c-1.1-9,4.3-27.6,6-32.9h-6.1c-2,5.5-9.4,24.9-14.5,26.8c-0.9,0.3-1.7,0-2.2-0.7c-3-4.6,6.7-42.5,10.6-46.5
					c3.1-3.1,18.3-2.8,21.3-2.7c8.7,0.2,19.2,1.4,22.3,3.9c7.8,6.2,2.1,49.9,1.1,57.3c6.8,6,89.1,78.4,111.7,117.5
					c22.2,38.3,18.1,52,13.9,66.4c-0.3,1.1-0.7,2.3-1,3.5c-1,3.5-3.2,5.8-6.5,6.8C514,577.4,512.6,577.6,511.1,577.6L511.1,577.6z
					 M365.7,397.6c0.9,2.2,48.4,112.1,83.5,142.2c28.8,24.7,54.5,38.5,65.5,35.2c2.6-0.8,4.2-2.5,5-5.3c0.3-1.2,0.7-2.3,1-3.5
					c4.3-14.6,8-27.2-13.7-64.7c-23.3-40.3-110.8-116.6-111.7-117.4l-0.5-0.4l0.1-0.6c2.8-20.1,5.1-51.6-0.2-55.9
					c-2.2-1.7-10.8-3.1-21-3.4c-11.2-0.3-18.5,0.8-19.7,2.1c-3.6,3.6-12,39.1-10.5,43.5c3.5-2,9.9-16.9,13.1-26.1l0.3-0.7h10.6
					L367,344c-0.1,0.2-7.6,23.5-6.4,33.4C361.9,387.1,365.5,397,365.7,397.6L365.7,397.6z"/>
			</g>
			<g>
				<path class="st6" d="M356.4,334.9c0,0,1.7,3.4,1.3,7.2c-0.4,3.8-1.3,4.9-1.3,4.9"/>
				<path class="st3" d="M356.4,348.1c-0.2,0-0.5-0.1-0.7-0.2c-0.5-0.4-0.5-1.1-0.2-1.5l0,0c0,0,0.7-1,1-4.3
					c0.4-3.5-1.1-6.6-1.2-6.6c-0.3-0.5,0-1.2,0.5-1.5s1.2,0,1.5,0.5c0.1,0.1,1.8,3.7,1.4,7.9c-0.4,4-1.3,5.2-1.5,5.5
					C357,348,356.7,348.1,356.4,348.1L356.4,348.1z"/>
			</g>
			<g>
				<path class="st6" d="M371.3,335.3c0,0-3.4,3.2-4.7,6.4s-2.3,8.7-2.3,8.7"/>
				<path class="st3" d="M364.3,351.5c-0.1,0-0.1,0-0.2,0c-0.6-0.1-1-0.7-0.9-1.3c0-0.2,1.1-5.7,2.4-8.9c1.4-3.4,4.8-6.6,5-6.8
					c0.4-0.4,1.1-0.4,1.5,0s0.4,1.1,0,1.5c0,0-3.2,3.1-4.4,6c-1.2,3.1-2.3,8.5-2.3,8.5C365.3,351.2,364.8,351.5,364.3,351.5
					L364.3,351.5z"/>
			</g>
		</g>
		<path class="st12" d="M369.2,406.3c0,0,46.7,11.5,62,42.2s4.5,49.2,16.6,65.9c12.1,16.6,30,14.1,38.4,28.1
			c8.3,14.1,3.8,26.8,3.8,26.8s-24.9-8.3-52.4-40.9s-37.1-56.3-37.1-56.3L369.2,406.3L369.2,406.3z"/>
	</g>
	<g>
		<g>
			<polygon class="st14" points="463.2,617.3 484.9,584 463.2,584 			"/>
			<path class="st3" d="M463.2,618c-0.1,0-0.1,0-0.2,0c-0.3-0.1-0.5-0.4-0.5-0.7V584c0-0.4,0.3-0.8,0.8-0.8H485
				c0.3,0,0.5,0.2,0.7,0.4c0.1,0.2,0.1,0.5,0,0.8L464,617.6C463.7,617.9,463.4,618,463.2,618L463.2,618z M463.9,584.8v30l19.6-30
				H463.9z"/>
		</g>
		<g>
			<path class="st15" d="M484.9,584v2.2c0,5.1-1.4,10.2-4.2,14.4l-13.7,21c-2.4,3.6-6.4,5.8-10.8,5.9h-6.5l13.4-10.3L484.9,584
				L484.9,584z"/>
			<path class="st3" d="M449.8,628.3c-0.3,0-0.6-0.2-0.7-0.5s0-0.7,0.2-0.8l13.3-10.2l21.7-33.1c0.2-0.3,0.5-0.4,0.8-0.3
				c0.3,0.1,0.5,0.4,0.5,0.7v2.2c0,5.3-1.5,10.4-4.4,14.9l-13.7,21c-2.5,3.9-6.8,6.2-11.4,6.2L449.8,628.3L449.8,628.3L449.8,628.3z
				 M484.2,586.5l-20.4,31.2c0,0.1-0.1,0.1-0.2,0.2l-11.6,8.9h4.2c4.1,0,7.9-2.1,10.1-5.5l13.7-21
				C482.7,596.1,484.1,591.4,484.2,586.5L484.2,586.5z"/>
		</g>
		<g>
			<path class="st14" d="M172.1,418.3l9.3,200.1c0.2,5.5,4.8,9.7,10.2,9.7l261.4-0.6c5.6,0,10.2-4.6,10.2-10.2L462,420.2
				c0-5.6-4.5-10.1-10.1-10.1l-269.5-2.4C176.5,407.6,171.9,412.5,172.1,418.3L172.1,418.3z"/>
			<path class="st3" d="M191.6,628.9c-5.9,0-10.7-4.6-10.9-10.4l-9.3-200.1c-0.1-3,0.9-5.9,3.1-8.1c2.1-2.2,4.9-3.4,7.9-3.4h0.1
				l269.5,2.4c6,0,10.8,4.9,10.9,10.9l1.2,197.1c0,2.9-1.1,5.7-3.2,7.8s-4.8,3.2-7.7,3.2L191.6,628.9L191.6,628.9L191.6,628.9z
				 M172.9,418.3l9.3,200.1c0.2,5,4.4,9,9.4,9l0,0l261.4-0.6c2.5,0,4.9-1,6.7-2.8s2.8-4.2,2.7-6.7l-1.2-197.1c0-5.1-4.2-9.3-9.4-9.4
				l-269.5-2.4h-0.1c-2.6,0-5,1-6.8,2.9C173.7,413.2,172.8,415.7,172.9,418.3L172.9,418.3z"/>
		</g>
		<path class="st9" d="M310.9,508.6c0,0-10.3-9.7-19.8-1.2c-9.5,8.5,6.5,30.3,11.7,30.9s9.7-1.6,9.7-1.6s5.6,3,10.7,1.4
			c5.9-1.8,19.4-23.2,8.7-30.5C321.2,500.3,310.9,508.6,310.9,508.6L310.9,508.6z"/>
		<path class="st9" d="M311.3,502.4c0,0-1.4-6.1,2.4-12.3c3.8-6.3,9.7-9.1,9.7-9.1s-0.2,8.3-3.8,13.5
			C315.9,499.7,311.3,502.4,311.3,502.4L311.3,502.4z"/>
		<path class="st16" d="M172.1,418.3l8.6,199.2c0.3,6.3,5.5,11.2,11.8,11.1l33.4-0.5c0,0,28.8-43.5,22.4-68.4
			c-6.4-24.9-37.7-11.5-45.4-41.6c-7.7-30,21.1-32,19.2-60.1C220.1,428.6,172.1,418.3,172.1,418.3L172.1,418.3z"/>
	</g>
	<g>
		<g>
			<polygon class="st7" points="546.5,596.6 543.5,551.8 575.1,558.2 575.5,606 			"/>
			<path class="st3" d="M575.5,606.7c-0.1,0-0.2,0-0.2,0l-29-9.4c-0.3-0.1-0.5-0.4-0.5-0.7l-3-44.8c0-0.2,0.1-0.5,0.3-0.6
				c0.2-0.2,0.4-0.2,0.7-0.2l31.5,6.4c0.3,0.1,0.6,0.4,0.6,0.7l0.4,47.7c0,0.2-0.1,0.5-0.3,0.6C575.8,606.7,575.7,606.7,575.5,606.7
				L575.5,606.7z M547.2,596l27.5,8.9l-0.4-46.1l-30-6.1L547.2,596L547.2,596z"/>
		</g>
		<g>
			<polygon class="st17" points="575.1,558.2 614.3,548.4 610.9,593.6 575.5,606 			"/>
			<path class="st3" d="M575.5,606.7c-0.2,0-0.3,0-0.4-0.1c-0.2-0.1-0.3-0.4-0.3-0.6l-0.4-47.7c0-0.3,0.2-0.7,0.6-0.7l39.2-9.8
				c0.2-0.1,0.5,0,0.7,0.2s0.3,0.4,0.3,0.6l-3.4,45.2c0,0.3-0.2,0.6-0.5,0.7l-35.4,12.4C575.7,606.7,575.6,606.7,575.5,606.7
				L575.5,606.7z M575.8,558.8l0.4,46.1l33.9-11.8l3.3-43.7L575.8,558.8L575.8,558.8z"/>
		</g>
		<polygon class="st3" points="543.5,551.8 576.5,543.3 614.3,548.4 575.1,558.2 		"/>
		<g>
			<path class="st10" d="M569.7,552.1c0,0-14.2-7.3-18.5-16.6c-4.4-9.3-1.7-25.9-1.7-25.9s8.1,4.9,16.1,18.8
				C573.6,542.3,569.7,552.1,569.7,552.1z"/>
			<path class="st3" d="M570,553.1l-0.7-0.4c-0.6-0.3-14.4-7.5-18.9-17c-4.4-9.4-1.9-25.6-1.8-26.3l0.2-1.1l1,0.6
				c0.3,0.2,8.3,5.1,16.4,19.1c8.2,14.1,4.4,23.9,4.2,24.3L570,553.1L570,553.1z M550,510.9c-0.5,3.9-1.8,16.7,1.8,24.2
				c3.6,7.7,14.4,14.1,17.4,15.8c0.7-2.6,2.1-11.1-4.3-22.2C558.6,518,552.3,512.7,550,510.9z"/>
		</g>
		<g>
			<path class="st10" d="M604.2,509.6c0,0-14.2,7.3-18.5,16.6s-1.7,25.9-1.7,25.9s8.1-4.9,16.1-18.8
				C608.1,519.3,604.2,509.6,604.2,509.6L604.2,509.6z"/>
			<path class="st3" d="M583.3,553.3l-0.2-1.1c-0.1-0.7-2.7-16.9,1.8-26.3c4.5-9.4,18.3-16.6,18.9-17l0.7-0.4l0.3,0.8
				c0.2,0.4,4,10.3-4.2,24.3c-8.1,13.9-16,18.9-16.4,19.1L583.3,553.3L583.3,553.3z M603.7,510.7c-3,1.7-13.8,8.1-17.4,15.8
				c-3.6,7.5-2.3,20.3-1.8,24.2c2.4-1.8,8.6-7.1,14.9-17.8C605.8,521.7,604.4,513.3,603.7,510.7L603.7,510.7z"/>
		</g>
		<g>
			<path class="st18" d="M575.5,553.5c0,0-7.2-14.7-6.8-27.3s10.2-23,10.2-23s8.1,9.2,7.2,22.4C585.3,538.8,575.5,553.5,575.5,553.5
				L575.5,553.5z"/>
			<path class="st3" d="M575.4,555.1l-0.6-1.2c-0.3-0.6-7.3-15-6.9-27.6c0.4-12.7,10-23.1,10.4-23.5l0.6-0.6l0.5,0.6
				c0.3,0.4,8.3,9.6,7.4,22.9c-0.9,13.3-10.4,27.7-10.8,28.3L575.4,555.1L575.4,555.1z M578.9,504.4c-2.1,2.5-9.1,11.5-9.5,21.9
				c-0.3,10.2,4.5,21.9,6.2,25.7c2.3-3.7,9.1-15.6,9.8-26.4C586.1,514.8,580.6,506.8,578.9,504.4L578.9,504.4z"/>
		</g>
	</g>
	<g>
		<circle class="st2" cx="157.3" cy="314.4" r="26.4"/>
		<polygon class="st9" points="156.5,299.7 160.9,308.5 170.6,310 163.6,316.9 165.2,326.6 156.5,322 147.8,326.6 149.4,316.9 
			142.4,310 152.1,308.5 		"/>
	</g>
	<g>
		<circle class="st3" cx="578.9" cy="220.2" r="36.2"/>
		<polygon class="st9" points="555.1,225.8 572.7,212.7 598.8,212.7 581.5,225.8 		"/>
		<path class="st9" d="M561.9,227.7v4.6c0,3.7,3,6.6,6.7,6.6h10.8c1.5,0,3-0.5,4.2-1.5l6.8-5.4c2.7-2.1,4.2-5.3,4.2-8.7l-0.2-4.4
			l-12.6,8.9L561.9,227.7L561.9,227.7z"/>
		<path class="st9" d="M577.8,217.5l-0.5-0.6c0,0,5.3-4,5.5-6.9c0-0.6-0.1-1.1-0.5-1.4c-0.5-0.5-1-1-1.4-1.4c-1.9-1.9-3.2-3.2-1.8-6
			c1.6-3.4,7-2.4,7.2-2.3l-0.2,0.7c0,0-5.1-1-6.4,1.9c-1.1,2.4-0.2,3.2,1.7,5.1c0.4,0.4,0.9,0.9,1.4,1.5s0.8,1.2,0.7,2
			C583.4,213.3,578.1,217.4,577.8,217.5L577.8,217.5z"/>
		<path class="st9" d="M590.4,199.4c0,1.2-1,2.1-2.1,2.1s-2.1-0.9-2.1-2.1s1-2.1,2.1-2.1S590.4,198.3,590.4,199.4z"/>
		<polygon class="st9" points="591.4,200.3 596,202.8 596.8,200.8 595.4,200.2 597.2,199.9 596.9,197.9 591.6,198.7 		"/>
	</g>
</g>
<g>
	<g>
		<path class="st9" d="M800.4,369.9c-1.6-1.8-2.4-4.2-2.4-7.4v-97.9c0-3.3,0.8-5.8,2.5-7.7c1.7-1.9,4-2.9,6.9-2.9s5.3,1,7,2.9
			c1.7,1.9,2.5,4.6,2.5,7.7v90.3h41.6c5.9,0,8.8,2.9,8.8,8.8s-2.9,8.8-8.8,8.8h-51.5C804.2,372.6,802,371.7,800.4,369.9z"/>
		<path class="st9" d="M882.4,369.9c-1.6-1.8-2.4-4.2-2.4-7.5V265c0-3.3,0.8-5.8,2.4-7.5c1.6-1.8,3.9-2.7,6.8-2.7h53.3
			c2.9,0,5.1,0.7,6.6,2.2c1.6,1.5,2.4,3.5,2.4,6.2c0,2.8-0.8,5-2.4,6.4s-3.7,2.3-6.6,2.3h-43.9v32.4h40.8c2.9,0,5.1,0.7,6.6,2.2
			c1.6,1.5,2.4,3.6,2.4,6.4c0,2.7-0.8,4.7-2.4,6.2s-3.7,2.2-6.6,2.2h-40.8v34.4h43.9c2.9,0,5.1,0.7,6.6,2.3c1.6,1.5,2.4,3.6,2.4,6.4
			c0,2.7-0.8,4.7-2.4,6.2s-3.7,2.2-6.6,2.2h-53.3C886.2,372.6,884,371.7,882.4,369.9z"/>
		<path class="st9" d="M1049.1,363.6c0,2.7-1,5.1-2.8,7c-1.8,2.1-3.9,3-6.3,3c-2.4,0-4.6-1.2-6.5-3.6l-30-42.1L973.5,370
			c-1.8,2.3-3.9,3.5-6.4,3.5c-2.4,0-4.5-1-6.3-2.9c-1.8-1.9-2.8-4.2-2.8-6.9c0-2.2,0.7-4.4,2.2-6.4l32.1-44.5l-30.8-42.7
			c-1.4-1.8-2.2-3.9-2.2-6.4c0-2.7,0.8-5,2.7-6.9c1.8-1.9,3.9-2.9,6.2-2.9c2.4,0,4.6,1.2,6.5,3.6l28.8,40.2l28.8-40.2
			c1.8-2.4,3.9-3.6,6.4-3.6c2.4,0,4.5,1,6.3,2.9c1.8,1.9,2.8,4.2,2.8,6.9c0,2.4-0.7,4.6-2.2,6.4l-30.8,42.7l32,44.5
			C1048.3,359.4,1049.1,361.5,1049.1,363.6z"/>
		<path class="st9" d="M1066.4,370.7c-1.7-2.1-2.5-4.6-2.5-7.9v-98.1c0-3.3,0.8-5.8,2.5-7.7c1.7-1.9,4-2.9,6.9-2.9s5.3,1,7,2.9
			c1.7,1.9,2.5,4.6,2.5,7.7v98.1c0,3.3-0.8,5.8-2.5,7.9c-1.7,2.1-4.1,3-7,3S1068.1,372.6,1066.4,370.7z"/>
		<path class="st9" d="M1125.5,366.8c-7.5-5-13.3-12-17.4-21c-4-9.2-6-19.8-6-32.1c0-12.2,2.1-23,6-32c4-9.1,9.8-16.1,17.4-21
			c7.5-5,16.3-7.4,26.3-7.4c6.5,0,12.6,1.1,18.2,3.3c5.7,2.2,10.8,5.3,15.2,9.4c1.3,1.1,2.2,2.3,2.7,3.5s0.7,2.8,0.7,4.5
			c0,2.4-0.6,4.5-1.8,6.2c-1.2,1.7-2.7,2.5-4.2,2.5c-1.9,0-4-0.7-6-2.3c-4.2-3.5-8.2-6-11.8-7.5s-7.7-2.1-12.1-2.1
			c-10.3,0-18,3.6-23.2,10.9c-5.3,7.3-7.9,17.9-7.9,31.9c0,14.1,2.7,24.9,7.9,32.1c5.3,7.3,13.1,10.9,23.2,10.9
			c4.2,0,8.1-0.7,11.7-2.2c3.6-1.5,7.6-3.9,12.2-7.4c1-0.6,1.9-1.2,2.9-1.7c1-0.5,2.1-0.6,3.1-0.6c1.7,0,3.1,0.8,4.2,2.5
			c1.2,1.7,1.8,3.7,1.8,6.2c0,1.7-0.2,3.1-0.7,4.5c-0.5,1.3-1.3,2.4-2.7,3.6c-4.5,4.1-9.5,7.3-15.2,9.4c-5.7,2.2-11.8,3.3-18.2,3.3
			C1141.8,374.2,1133,371.7,1125.5,366.8z"/>
		<path class="st9" d="M1223.5,366.8c-7.5-5-13.2-12-17.2-21c-4-9.2-6-19.8-6-32.1c0-12.2,1.9-23,5.9-32c4-9.1,9.7-16.1,17.2-21
			c7.5-5,16.3-7.4,26.5-7.4c10.2,0,19,2.4,26.3,7.4c7.4,5,13.2,11.8,17.2,21s5.9,19.7,5.9,32c0,12.2-2.1,23-6,32.1
			c-4,9.2-9.8,16.2-17.2,21c-7.4,5-16.2,7.4-26.2,7.4C1239.7,374.2,1230.8,371.7,1223.5,366.8z M1272.2,345.8
			c5.3-7.5,8.1-18.1,8.1-32.1c0-13.9-2.7-24.5-8.1-32c-5.3-7.4-12.8-11.1-22.4-11.1c-9.7,0-17.2,3.7-22.5,11.1s-8.1,18.1-8.1,32
			s2.7,24.7,8.1,32.1c5.3,7.5,12.8,11.2,22.5,11.2C1259.4,356.9,1266.7,353.3,1272.2,345.8z"/>
		<path class="st9" d="M1403.8,256.9c1.6,1.9,2.4,4.6,2.4,7.7v98.1c0,3.3-0.8,5.8-2.5,7.9c-1.7,2.1-3.9,3-6.5,3
			c-3.1,0-5.6-1.3-7.3-3.9l-53.9-79.4v72.4c0,3.3-0.8,5.8-2.4,7.9c-1.6,2.1-3.7,3-6.5,3s-5-1-6.5-3c-1.6-2.1-2.4-4.6-2.4-7.9v-98.1
			c0-3.3,0.8-5.8,2.5-7.7c1.7-1.9,3.9-2.9,6.6-2.9c3,0,5.4,1.3,7.1,3.9l53.8,79v-72.1c0-3.3,0.8-5.8,2.4-7.7s3.7-2.9,6.4-2.9
			C1399.9,253.9,1402.1,254.9,1403.8,256.9z"/>
	</g>
	<g>
		<path class="st19" d="M804.7,384.3v2.5c0,0.2-0.1,0.4-0.4,0.4h-6.9c-0.1,0-0.1,0-0.1,0.1v24.4c0,0.2-0.1,0.4-0.4,0.4h-2.8
			c-0.2,0-0.4-0.1-0.4-0.4v-24.2c0-0.1,0-0.1-0.1-0.1h-6.5c-0.2,0-0.4-0.1-0.4-0.4v-2.5c0-0.2,0.1-0.4,0.4-0.4h17.2
			C804.5,383.9,804.7,384.1,804.7,384.3z"/>
		<path class="st19" d="M821.2,393.4c1.1,1.3,1.7,3,1.7,5.2V412c0,0.2-0.1,0.4-0.4,0.4h-2.7c-0.2,0-0.4-0.1-0.4-0.4v-12.6
			c0-1.3-0.4-2.4-1.1-3.3c-0.7-0.8-1.6-1.2-2.8-1.2c-1.1,0-2.1,0.5-2.8,1.2c-0.7,0.8-1.1,1.9-1.1,3.3V412c0,0.2-0.1,0.4-0.4,0.4
			h-2.8c-0.2,0-0.4-0.1-0.4-0.4v-27.6c0-0.2,0.1-0.4,0.4-0.4h2.8c0.2,0,0.4,0.1,0.4,0.4v9.2v0.1c0,0,0,0,0.1,0
			c1-1.5,2.5-2.2,4.6-2.2C818.6,391.4,820.1,392,821.2,393.4z"/>
		<path class="st19" d="M842.5,403.2c0,0.2-0.1,0.4-0.4,0.4h-11.4c-0.1,0-0.1,0-0.1,0.1c0,1,0.1,1.6,0.2,2.1
			c0.2,1.1,0.8,1.9,1.6,2.5c0.8,0.6,1.8,1,3,1c1.8,0,3.1-0.8,4.1-2.4c0.1-0.2,0.2-0.4,0.5-0.1l2.1,1.6c0.1,0.1,0.2,0.4,0.1,0.5
			c-0.7,1.2-1.6,2.2-2.9,2.9c-1.2,0.7-2.7,1.1-4.1,1.1c-1.7,0-3.1-0.5-4.4-1.3c-1.2-0.8-2.1-2.1-2.7-3.6c-0.6-1.6-0.8-3.5-0.8-5.8
			c0-1.9,0.1-3.5,0.4-4.5c0.5-1.8,1.3-3.4,2.5-4.4c1.3-1.1,2.9-1.6,4.7-1.6c2.4,0,4.2,0.7,5.4,2.1s1.9,3.4,2.2,6
			C842.5,400.5,842.5,401.7,842.5,403.2z M832.3,395.5c-0.7,0.6-1.1,1.3-1.3,2.3c-0.1,0.6-0.2,1.3-0.4,2.3c0,0.1,0,0.1,0.1,0.1h8.2
			c0.1,0,0.1,0,0.1-0.1c0-0.8-0.1-1.6-0.2-1.9c-0.2-1.1-0.7-1.9-1.5-2.5c-0.7-0.6-1.6-1-2.7-1C833.8,394.7,832.9,395.1,832.3,395.5z
			"/>
		<path class="st19" d="M856.7,411.1c-1.3-1-2.2-2.4-2.8-4.2c-0.5-1.5-0.6-3.1-0.6-5c0-1.9,0.2-3.5,0.6-4.8c0.5-1.8,1.5-3.1,2.8-4.2
			c1.3-1,2.9-1.6,4.7-1.6c1.7,0,3.3,0.5,4.5,1.6s2.2,2.4,2.8,4.1c0.5,1.3,0.6,3,0.6,4.8c0,1.9-0.2,3.5-0.6,5
			c-0.5,1.8-1.5,3.3-2.8,4.2s-2.8,1.6-4.6,1.6C859.6,412.6,858.1,412.1,856.7,411.1z M863.9,408.4c0.7-0.6,1.2-1.5,1.6-2.5
			c0.2-1,0.4-2.3,0.4-3.9c0-1.6-0.1-2.8-0.4-3.7c-0.4-1.1-0.8-1.9-1.6-2.5s-1.6-1-2.7-1c-1,0-1.8,0.4-2.5,1s-1.2,1.5-1.6,2.5
			c-0.2,1-0.4,2.2-0.4,3.7c0,1.6,0.1,2.8,0.4,3.9c0.2,1.1,0.8,1.9,1.6,2.5c0.7,0.6,1.6,1,2.7,1C862.4,409.2,863.1,409,863.9,408.4z"
			/>
		<path class="st19" d="M886.6,393.4c1.1,1.3,1.7,3,1.7,5.2V412c0,0.2-0.1,0.4-0.4,0.4h-2.8c-0.2,0-0.4-0.1-0.4-0.4v-12.6
			c0-1.3-0.4-2.4-1.1-3.3c-0.7-0.8-1.6-1.2-2.8-1.2c-1.1,0-2.1,0.5-2.8,1.2c-0.7,0.8-1.1,1.9-1.1,3.3V412c0,0.2-0.1,0.4-0.4,0.4
			h-2.8c-0.2,0-0.4-0.1-0.4-0.4v-19.8c0-0.2,0.1-0.4,0.4-0.4h2.8c0.2,0,0.4,0.1,0.4,0.4v1.5v0.1c0,0,0,0,0.1,0
			c1-1.5,2.5-2.2,4.6-2.2C883.9,391.4,885.4,392,886.6,393.4z"/>
		<path class="st19" d="M893.2,411.9v-27.6c0-0.2,0.1-0.4,0.4-0.4h2.8c0.2,0,0.4,0.1,0.4,0.4v27.6c0,0.2-0.1,0.4-0.4,0.4h-2.8
			C893.4,412.3,893.2,412.1,893.2,411.9z"/>
		<path class="st19" d="M902.1,387.7c-0.5-0.5-0.6-1.1-0.6-1.8c0-0.7,0.2-1.3,0.6-1.8c0.5-0.5,1-0.7,1.7-0.7c0.7,0,1.2,0.2,1.7,0.7
			s0.6,1.1,0.6,1.8c0,0.7-0.2,1.3-0.6,1.8s-1,0.7-1.7,0.7C903,388.4,902.4,388.2,902.1,387.7z M901.8,411.9V392
			c0-0.2,0.1-0.4,0.4-0.4h2.8c0.2,0,0.4,0.1,0.4,0.4v19.8c0,0.2-0.1,0.4-0.4,0.4h-2.8C901.9,412.2,901.8,412.1,901.8,411.9z"/>
		<path class="st19" d="M923.4,393.4c1.1,1.3,1.7,3,1.7,5.2V412c0,0.2-0.1,0.4-0.4,0.4H922c-0.2,0-0.4-0.1-0.4-0.4v-12.6
			c0-1.3-0.4-2.4-1.1-3.3c-0.7-0.8-1.6-1.2-2.8-1.2c-1.1,0-2.1,0.5-2.8,1.2c-0.7,0.8-1.1,1.9-1.1,3.3V412c0,0.2-0.1,0.4-0.4,0.4
			h-2.8c-0.2,0-0.4-0.1-0.4-0.4v-19.8c0-0.2,0.1-0.4,0.4-0.4h2.8c0.2,0,0.4,0.1,0.4,0.4v1.5v0.1c0,0,0,0,0.1,0
			c1-1.5,2.5-2.2,4.6-2.2C920.8,391.4,922.4,392,923.4,393.4z"/>
		<path class="st19" d="M944.7,403.2c0,0.2-0.1,0.4-0.4,0.4H933c-0.1,0-0.1,0-0.1,0.1c0,1,0.1,1.6,0.2,2.1c0.2,1.1,0.8,1.9,1.6,2.5
			c0.8,0.6,1.8,1,3,1c1.8,0,3.1-0.8,4.1-2.4c0.1-0.2,0.2-0.4,0.5-0.1l2.1,1.6c0.1,0.1,0.2,0.4,0.1,0.5c-0.7,1.2-1.6,2.2-2.9,2.9
			c-1.2,0.7-2.7,1.1-4.1,1.1c-1.7,0-3.1-0.5-4.4-1.3c-1.2-0.8-2.1-2.1-2.7-3.6c-0.6-1.6-0.8-3.5-0.8-5.8c0-1.9,0.1-3.5,0.4-4.5
			c0.5-1.8,1.3-3.4,2.5-4.4c1.3-1.1,2.9-1.6,4.7-1.6c2.4,0,4.2,0.7,5.4,2.1c1.2,1.3,1.9,3.4,2.2,6
			C944.7,400.5,944.7,401.7,944.7,403.2z M934.4,395.5c-0.7,0.6-1.1,1.3-1.3,2.3c-0.1,0.6-0.2,1.3-0.4,2.3c0,0.1,0,0.1,0.1,0.1h8.2
			c0.1,0,0.1,0,0.1-0.1c0-0.8-0.1-1.6-0.2-1.9c-0.2-1.1-0.7-1.9-1.5-2.5s-1.6-1-2.7-1C936,394.7,935.2,395.1,934.4,395.5z"/>
		<path class="st19" d="M956.2,411.9v-27.6c0-0.2,0.1-0.4,0.4-0.4h2.8c0.2,0,0.4,0.1,0.4,0.4v27.6c0,0.2-0.1,0.4-0.4,0.4h-2.8
			C956.3,412.3,956.2,412.1,956.2,411.9z"/>
		<path class="st19" d="M979.4,403.2c0,0.2-0.1,0.4-0.4,0.4h-11.4c-0.1,0-0.1,0-0.1,0.1c0,1,0.1,1.6,0.2,2.1
			c0.2,1.1,0.8,1.9,1.6,2.5c0.8,0.6,1.8,1,3,1c1.8,0,3.1-0.8,4.1-2.4c0.1-0.2,0.2-0.4,0.5-0.1l2.1,1.6c0.1,0.1,0.2,0.4,0.1,0.5
			c-0.7,1.2-1.6,2.2-2.9,2.9c-1.2,0.7-2.7,1.1-4.1,1.1c-1.7,0-3.1-0.5-4.4-1.3c-1.2-0.8-2.1-2.1-2.7-3.6c-0.6-1.6-0.8-3.5-0.8-5.8
			c0-1.9,0.1-3.5,0.4-4.5c0.5-1.8,1.3-3.4,2.5-4.4c1.3-1.1,2.9-1.6,4.7-1.6c2.4,0,4.2,0.7,5.4,2.1s1.9,3.4,2.2,6
			C979.4,400.5,979.4,401.7,979.4,403.2z M969.1,395.5c-0.7,0.6-1.1,1.3-1.3,2.3c-0.1,0.6-0.2,1.3-0.4,2.3c0,0.1,0,0.1,0.1,0.1h8.2
			c0.1,0,0.1,0,0.1-0.1c0-0.8-0.1-1.6-0.2-1.9c-0.2-1.1-0.7-1.9-1.5-2.5c-0.7-0.6-1.6-1-2.7-1C970.7,394.7,969.8,395.1,969.1,395.5z
			"/>
		<path class="st19" d="M994,392.3c1.1,0.6,1.9,1.3,2.5,2.4c0.6,1.1,0.8,2.2,0.8,3.5v13.7c0,0.2-0.1,0.4-0.4,0.4h-2.8
			c-0.2,0-0.4-0.1-0.4-0.4v-1.5c0-0.1,0-0.1-0.1-0.1c-0.6,0.7-1.3,1.3-2.3,1.7c-1,0.4-1.9,0.6-3,0.6c-1.8,0-3.3-0.5-4.4-1.6
			c-1.2-1-1.7-2.5-1.7-4.6c0-2.1,0.6-3.7,1.9-5c1.3-1.2,3.1-1.8,5.4-1.8h4c0.1,0,0.1,0,0.1-0.1v-1.1c0-1.2-0.2-2.2-1-2.8
			c-0.6-0.6-1.6-1-2.8-1c-1,0-1.8,0.2-2.4,0.6c-0.6,0.5-1,1.1-1.2,1.8c-0.1,0.2-0.2,0.4-0.5,0.4l-2.9-0.5c-0.2,0-0.4-0.1-0.4-0.4
			c0.2-1.6,1-2.9,2.3-3.9c1.3-1,2.9-1.6,5-1.6C991.6,391.3,992.9,391.7,994,392.3z M992.6,408.2c1-0.7,1.5-1.7,1.5-2.9v-2.4
			c0-0.1,0-0.1-0.1-0.1h-3.4c-1.4,0-2.5,0.4-3.4,1c-0.8,0.6-1.2,1.5-1.2,2.5c0,1,0.4,1.8,1,2.3s1.4,0.7,2.5,0.7
			C990.5,409.3,991.6,409,992.6,408.2z"/>
		<path class="st19" d="M1012,392c0.1,0.1,0.2,0.2,0.1,0.5l-0.6,3c0,0.2-0.1,0.4-0.5,0.2c-0.4-0.2-0.8-0.2-1.4-0.2h-0.5
			c-1.1,0-2.1,0.5-2.8,1.3c-0.7,0.8-1.1,1.9-1.1,3.3V412c0,0.2-0.1,0.4-0.4,0.4h-2.8c-0.2,0-0.4-0.1-0.4-0.4v-19.8
			c0-0.2,0.1-0.4,0.4-0.4h2.8c0.2,0,0.4,0.1,0.4,0.4v2.2c0,0.1,0,0.1,0,0.1s0,0,0.1-0.1c1.1-1.9,2.5-2.8,4.4-2.8
			C1010.7,391.4,1011.4,391.7,1012,392z"/>
		<path class="st19" d="M1028,393.4c1.1,1.3,1.7,3,1.7,5.2V412c0,0.2-0.1,0.4-0.4,0.4h-2.8c-0.2,0-0.4-0.1-0.4-0.4v-12.6
			c0-1.3-0.4-2.4-1.1-3.3s-1.6-1.2-2.8-1.2c-1.1,0-2.1,0.5-2.8,1.2c-0.7,0.8-1.1,1.9-1.1,3.3V412c0,0.2-0.1,0.4-0.4,0.4h-2.8
			c-0.2,0-0.4-0.1-0.4-0.4v-19.8c0-0.2,0.1-0.4,0.4-0.4h2.8c0.2,0,0.4,0.1,0.4,0.4v1.5v0.1c0,0,0,0,0.1,0c1-1.5,2.5-2.2,4.6-2.2
			C1025.3,391.4,1026.9,392,1028,393.4z"/>
		<path class="st19" d="M1035.1,387.7c-0.5-0.5-0.6-1.1-0.6-1.8c0-0.7,0.2-1.3,0.6-1.8c0.5-0.5,1-0.7,1.7-0.7s1.2,0.2,1.7,0.7
			c0.5,0.5,0.6,1.1,0.6,1.8c0,0.7-0.2,1.3-0.6,1.8c-0.5,0.5-1,0.7-1.7,0.7S1035.5,388.2,1035.1,387.7z M1034.8,411.9V392
			c0-0.2,0.1-0.4,0.4-0.4h2.8c0.2,0,0.4,0.1,0.4,0.4v19.8c0,0.2-0.1,0.4-0.4,0.4h-2.8C1035,412.2,1034.8,412.1,1034.8,411.9z"/>
		<path class="st19" d="M1056.5,393.4c1.1,1.3,1.7,3,1.7,5.2V412c0,0.2-0.1,0.4-0.4,0.4h-2.8c-0.2,0-0.4-0.1-0.4-0.4v-12.6
			c0-1.3-0.4-2.4-1.1-3.3s-1.6-1.2-2.8-1.2c-1.1,0-2.1,0.5-2.8,1.2c-0.7,0.7-1.1,1.9-1.1,3.3V412c0,0.2-0.1,0.4-0.4,0.4h-2.8
			c-0.2,0-0.4-0.1-0.4-0.4v-19.8c0-0.2,0.1-0.4,0.4-0.4h2.8c0.2,0,0.4,0.1,0.4,0.4v1.5v0.1c0,0,0,0,0.1,0c1-1.5,2.5-2.2,4.6-2.2
			C1053.8,391.4,1055.4,392,1056.5,393.4z"/>
		<path class="st19" d="M1074.6,391.7h2.8c0.2,0,0.4,0.1,0.4,0.4v19.1c0,3.3-0.8,5.6-2.4,7c-1.6,1.5-3.9,2.1-6.5,2.1
			c-0.4,0-1,0-1.8-0.1c-0.2,0-0.4-0.1-0.4-0.5l0.1-2.8c0-0.1,0-0.2,0.1-0.2c0.1-0.1,0.1-0.1,0.2-0.1c0.4,0,0.8,0,1.4,0
			c2.1,0,3.5-0.5,4.3-1.3c1-0.8,1.3-2.3,1.3-4.4V410v-0.1h-0.1c-1,1.3-2.4,1.9-4.3,1.9c-1.6,0-2.9-0.5-4.2-1.3
			c-1.2-1-2.1-2.3-2.5-4.1c-0.4-1.2-0.5-2.8-0.5-5c0-2.3,0.1-4,0.5-5.2c0.5-1.6,1.2-2.9,2.4-3.9c1.2-1,2.5-1.5,4.1-1.5
			c1.9,0,3.5,0.7,4.6,2.1l0.1,0.1c0,0,0,0,0-0.1v-1.2C1074.2,391.8,1074.4,391.7,1074.6,391.7z M1074.2,404.4c0-0.5,0-1.3,0-2.4
			c0-1.1,0-1.9,0-2.4s-0.1-1-0.2-1.3c-0.2-1-0.6-1.8-1.3-2.4c-0.7-0.6-1.4-1-2.5-1c-1,0-1.8,0.4-2.5,1c-0.7,0.6-1.1,1.5-1.4,2.4
			c-0.2,0.8-0.4,2.1-0.4,3.7c0,1.8,0.1,3.1,0.4,3.9c0.2,1,0.7,1.8,1.4,2.4s1.6,1,2.5,1c1.1,0,1.9-0.4,2.5-1c0.6-0.6,1.1-1.5,1.3-2.4
			C1074.1,405.2,1074.2,404.8,1074.2,404.4z"/>
		<path class="st19" d="M1105.1,402.1c0,1.9-0.2,3.5-0.6,5c-0.5,1.8-1.3,3.3-2.4,4.2c-1.1,1-2.7,1.5-4.4,1.5c-0.8,0-1.6-0.2-2.3-0.5
			c-0.7-0.2-1.3-0.8-1.8-1.6c0,0-0.1-0.1-0.1,0v0.1v9.1c0,0.2-0.1,0.4-0.4,0.4h-2.8c-0.2,0-0.4-0.1-0.4-0.4v-27.6
			c0-0.2,0.1-0.4,0.4-0.4h2.8c0.2,0,0.4,0.1,0.4,0.4v1.3v0.1h0.1c0.5-0.7,1.1-1.2,1.8-1.6s1.4-0.6,2.3-0.6c1.7,0,3.1,0.5,4.2,1.5
			c1.1,1,1.9,2.3,2.5,4.1C1104.8,398.3,1105.1,400,1105.1,402.1z M1101.7,401.9c0-2.1-0.2-3.7-0.8-5.1c-0.7-1.5-1.8-2.2-3.4-2.2
			c-1.3,0-2.4,0.7-3.1,2.2c-0.6,1.2-0.8,2.9-0.8,5.1c0,2.3,0.4,4,1,5.2c0.7,1.3,1.7,2.1,3,2.1c1.4,0,2.5-0.6,3.1-1.9
			C1101.2,406.1,1101.7,404.2,1101.7,401.9z"/>
		<path class="st19" d="M1109.6,411.9v-27.6c0-0.2,0.1-0.4,0.4-0.4h2.8c0.2,0,0.4,0.1,0.4,0.4v27.6c0,0.2-0.1,0.4-0.4,0.4h-2.8
			C1109.8,412.3,1109.6,412.1,1109.6,411.9z"/>
		<path class="st19" d="M1128.5,392.3c1.1,0.6,1.9,1.3,2.5,2.4c0.6,1.1,0.8,2.2,0.8,3.5v13.7c0,0.2-0.1,0.4-0.4,0.4h-2.8
			c-0.2,0-0.4-0.1-0.4-0.4v-1.5c0-0.1,0-0.1-0.1-0.1c-0.6,0.7-1.3,1.3-2.3,1.7c-0.8,0.4-1.9,0.6-3,0.6c-1.8,0-3.3-0.5-4.4-1.6
			c-1.2-1-1.7-2.5-1.7-4.6c0-2.1,0.6-3.7,1.9-5c1.3-1.2,3.1-1.8,5.4-1.8h4c0.1,0,0.1,0,0.1-0.1v-1.1c0-1.2-0.2-2.2-1-2.8
			c-0.6-0.6-1.6-1-2.8-1c-1,0-1.8,0.2-2.4,0.6c-0.6,0.5-1,1.1-1.2,1.8c-0.1,0.2-0.2,0.4-0.5,0.4l-2.9-0.5c-0.2,0-0.4-0.1-0.4-0.4
			c0.2-1.6,1-2.9,2.3-3.9c1.3-1,2.9-1.6,5-1.6C1126.1,391.3,1127.4,391.7,1128.5,392.3z M1127,408.2c1-0.7,1.5-1.7,1.5-2.9v-2.4
			c0-0.1,0-0.1-0.1-0.1h-3.4c-1.4,0-2.5,0.4-3.4,1c-0.8,0.6-1.2,1.5-1.2,2.5c0,1,0.4,1.8,1,2.3c0.6,0.5,1.4,0.7,2.5,0.7
			C1125,409.3,1126.1,409,1127,408.2z"/>
		<path class="st19" d="M1144.8,394.9h-3.9c-0.1,0-0.1,0-0.1,0.1v10.8c0,1.1,0.2,1.9,0.7,2.4s1.2,0.7,2.1,0.7h1.1
			c0.2,0,0.4,0.1,0.4,0.4v2.5c0,0.2-0.1,0.4-0.4,0.4c-0.7,0-1.3,0.1-1.7,0.1c-1.8,0-3.1-0.4-4.1-1.1c-1-0.7-1.3-2.2-1.3-4.1v-12.1
			c0-0.1,0-0.1-0.1-0.1h-2.2c-0.2,0-0.4-0.1-0.4-0.4v-2.4c0-0.2,0.1-0.4,0.4-0.4h2.2c0.1,0,0.1,0,0.1-0.1v-4.8
			c0-0.2,0.1-0.4,0.4-0.4h2.5c0.2,0,0.4,0.1,0.4,0.4v4.8c0,0.1,0,0.1,0.1,0.1h3.9c0.2,0,0.4,0.1,0.4,0.4v2.4
			C1145.2,394.7,1145.1,394.9,1144.8,394.9z"/>
		<path class="st19" d="M1155,388.2c-0.5,0.5-0.6,1.5-0.6,2.9v0.5c0,0.1,0,0.1,0.1,0.1h3.7c0.2,0,0.4,0.1,0.4,0.4v2.8
			c0,0.2-0.1,0.4-0.4,0.4h-3.7c-0.1,0-0.1,0-0.1,0.1v16.4c0,0.2-0.1,0.4-0.4,0.4h-2.8c-0.2,0-0.4-0.1-0.4-0.4v-16.4
			c0-0.1,0-0.1-0.1-0.1h-2.4c-0.2,0-0.4-0.1-0.4-0.4V392c0-0.2,0.1-0.4,0.4-0.4h2.4c0.1,0,0.1,0,0.1-0.1v-0.7c0-1.8,0.1-3.1,0.6-4.1
			c0.4-1,1-1.7,1.8-2.1c0.8-0.5,2.2-0.6,3.7-0.6h1.2c0.2,0,0.4,0.1,0.4,0.4v2.5c0,0.2-0.1,0.4-0.4,0.4h-0.8
			C1156.2,387.3,1155.4,387.6,1155,388.2z"/>
		<path class="st19" d="M1163.9,411.1c-1.3-1-2.2-2.4-2.8-4.2c-0.5-1.5-0.6-3.1-0.6-5c0-1.9,0.2-3.5,0.6-4.8
			c0.5-1.8,1.5-3.1,2.8-4.2c1.3-1,2.9-1.6,4.7-1.6c1.7,0,3.3,0.5,4.5,1.6s2.2,2.4,2.8,4.1c0.5,1.3,0.6,3,0.6,4.8
			c0,1.9-0.2,3.5-0.6,5c-0.5,1.8-1.4,3.3-2.8,4.2c-1.3,1-2.8,1.6-4.6,1.6C1166.7,412.6,1165.2,412.1,1163.9,411.1z M1171,408.4
			c0.7-0.6,1.2-1.5,1.6-2.5c0.2-1,0.4-2.3,0.4-3.9c0-1.6-0.1-2.8-0.4-3.7c-0.4-1.1-0.8-1.9-1.6-2.5c-0.7-0.6-1.6-1-2.7-1
			c-1,0-1.8,0.4-2.5,1s-1.2,1.5-1.6,2.5c-0.2,1-0.4,2.2-0.4,3.7c0,1.6,0.1,2.8,0.4,3.9c0.2,1.1,0.8,1.9,1.6,2.5c0.7,0.6,1.6,1,2.7,1
			C1169.5,409.2,1170.3,409,1171,408.4z"/>
		<path class="st19" d="M1191,392c0.1,0.1,0.2,0.2,0.1,0.5l-0.6,3c0,0.2-0.1,0.4-0.5,0.2c-0.4-0.2-0.8-0.2-1.4-0.2h-0.5
			c-1.1,0-2.1,0.5-2.8,1.3c-0.7,0.8-1.1,1.9-1.1,3.3V412c0,0.2-0.1,0.4-0.4,0.4h-2.8c-0.2,0-0.4-0.1-0.4-0.4v-19.8
			c0-0.2,0.1-0.4,0.4-0.4h2.8c0.2,0,0.4,0.1,0.4,0.4v2.2c0,0.1,0,0.1,0,0.1s0,0,0.1-0.1c1.1-1.9,2.5-2.8,4.3-2.8
			C1189.6,391.4,1190.4,391.7,1191,392z"/>
		<path class="st19" d="M1217.3,393.2c1.1,1.2,1.6,2.9,1.6,5.1v13.5c0,0.2-0.1,0.4-0.4,0.4h-2.7c-0.2,0-0.4-0.1-0.4-0.4v-12.7
			c0-1.3-0.4-2.4-1-3.3c-0.6-0.8-1.6-1.2-2.7-1.2c-1.1,0-1.9,0.4-2.7,1.2c-0.7,0.7-1.1,1.8-1.1,3.1v12.8c0,0.2-0.1,0.4-0.4,0.4h-2.7
			c-0.2,0-0.4-0.1-0.4-0.4v-12.7c0-1.3-0.4-2.4-1-3.3c-0.6-0.8-1.6-1.2-2.7-1.2c-1.1,0-1.9,0.4-2.7,1.2c-0.6,0.7-1,1.8-1,3.1v12.8
			c0,0.2-0.1,0.4-0.4,0.4h-2.8c-0.2,0-0.4-0.1-0.4-0.4V392c0-0.2,0.1-0.4,0.4-0.4h2.8c0.2,0,0.4,0.1,0.4,0.4v1.3v0.1h0.1
			c1.1-1.5,2.5-2.2,4.6-2.2c1.2,0,2.3,0.2,3.1,0.8c0.8,0.5,1.6,1.3,2.1,2.3c0.1,0.1,0.1,0.1,0.2,0c0.6-1.1,1.3-1.8,2.3-2.3
			c1-0.5,1.9-0.7,3.1-0.7C1214.9,391.4,1216.3,392,1217.3,393.2z"/>
		<path class="st19" d="M1236.4,388.2c-0.5,0.5-0.6,1.5-0.6,2.9v0.5c0,0.1,0,0.1,0.1,0.1h3.7c0.2,0,0.4,0.1,0.4,0.4v2.8
			c0,0.2-0.1,0.4-0.4,0.4h-3.7c-0.1,0-0.1,0-0.1,0.1v16.4c0,0.2-0.1,0.4-0.4,0.4h-2.8c-0.2,0-0.4-0.1-0.4-0.4v-16.4
			c0-0.1,0-0.1-0.1-0.1h-2.4c-0.2,0-0.4-0.1-0.4-0.4V392c0-0.2,0.1-0.4,0.4-0.4h2.4c0.1,0,0.1,0,0.1-0.1v-0.7c0-1.8,0.1-3.1,0.6-4.1
			c0.4-1,1-1.7,1.8-2.1c0.8-0.5,2.2-0.6,3.7-0.6h1.2c0.2,0,0.4,0.1,0.4,0.4v2.5c0,0.2-0.1,0.4-0.4,0.4h-0.8
			C1237.6,387.3,1236.8,387.6,1236.4,388.2z"/>
		<path class="st19" d="M1245.2,411.1c-1.3-1-2.2-2.4-2.8-4.2c-0.5-1.5-0.6-3.1-0.6-5c0-1.9,0.2-3.5,0.6-4.8
			c0.5-1.8,1.5-3.1,2.8-4.2c1.3-1,2.9-1.6,4.7-1.6c1.7,0,3.3,0.5,4.5,1.6s2.2,2.4,2.8,4.1c0.5,1.3,0.6,3,0.6,4.8
			c0,1.9-0.2,3.5-0.6,5c-0.5,1.8-1.4,3.3-2.8,4.2c-1.3,1-2.8,1.6-4.6,1.6C1248.1,412.6,1246.6,412.1,1245.2,411.1z M1252.4,408.4
			c0.7-0.6,1.2-1.5,1.6-2.5c0.2-1,0.4-2.3,0.4-3.9c0-1.6-0.1-2.8-0.4-3.7c-0.4-1.1-0.8-1.9-1.6-2.5c-0.7-0.6-1.6-1-2.7-1
			c-1,0-1.8,0.4-2.5,1c-0.7,0.6-1.2,1.5-1.6,2.5c-0.2,1-0.4,2.2-0.4,3.7c0,1.6,0.1,2.8,0.4,3.9c0.2,1.1,0.8,1.9,1.6,2.5
			c0.7,0.6,1.6,1,2.7,1C1250.9,409.2,1251.6,409,1252.4,408.4z"/>
		<path class="st19" d="M1272.3,392c0.1,0.1,0.2,0.2,0.1,0.5l-0.6,3c0,0.2-0.1,0.4-0.5,0.2c-0.4-0.2-0.8-0.2-1.4-0.2h-0.5
			c-1.1,0-2.1,0.5-2.8,1.3c-0.7,0.8-1.1,1.9-1.1,3.3V412c0,0.2-0.1,0.4-0.4,0.4h-2.8c-0.2,0-0.4-0.1-0.4-0.4v-19.8
			c0-0.2,0.1-0.4,0.4-0.4h2.8c0.2,0,0.4,0.1,0.4,0.4v2.2c0,0.1,0,0.1,0,0.1s0,0,0.1-0.1c1.1-1.9,2.5-2.8,4.4-2.8
			C1271.1,391.4,1271.7,391.7,1272.3,392z"/>
		<path class="st19" d="M1297.5,403.2c0,0.2-0.1,0.4-0.4,0.4h-11.4c-0.1,0-0.1,0-0.1,0.1c0,1,0.1,1.6,0.2,2.1
			c0.2,1.1,0.8,1.9,1.6,2.5c0.8,0.6,1.8,1,3,1c1.8,0,3.1-0.8,4.1-2.4c0.1-0.2,0.2-0.4,0.5-0.1l2.1,1.6c0.1,0.1,0.2,0.4,0.1,0.5
			c-0.7,1.2-1.6,2.2-2.9,2.9c-1.2,0.7-2.7,1.1-4.1,1.1c-1.7,0-3.1-0.5-4.4-1.3s-2.1-2.1-2.7-3.6c-0.6-1.6-0.8-3.5-0.8-5.8
			c0-1.9,0.1-3.5,0.4-4.5c0.5-1.8,1.3-3.4,2.5-4.4c1.3-1.1,2.9-1.6,4.7-1.6c2.4,0,4.2,0.7,5.4,2.1c1.2,1.3,1.9,3.4,2.2,6
			C1297.5,400.5,1297.5,401.7,1297.5,403.2z M1287.3,395.5c-0.7,0.6-1.1,1.3-1.3,2.3c-0.1,0.6-0.2,1.3-0.4,2.3c0,0.1,0,0.1,0.1,0.1
			h8.2c0.1,0,0.1,0,0.1-0.1c0-0.8-0.1-1.6-0.2-1.9c-0.2-1.1-0.7-1.9-1.4-2.5s-1.6-1-2.7-1C1288.8,394.7,1288,395.1,1287.3,395.5z"/>
		<path class="st19" d="M1305.5,412l-5.8-19.8V392c0-0.2,0.1-0.2,0.4-0.2h3c0.2,0,0.4,0.1,0.5,0.4l4,14.6c0,0,0,0.1,0.1,0.1
			c0.1,0,0.1,0,0.1-0.1l3.9-14.6c0.1-0.2,0.2-0.4,0.5-0.4h3c0.2,0,0.4,0.1,0.2,0.5l-5.8,19.8c-0.1,0.2-0.2,0.4-0.5,0.4h-3
			C1305.8,412.3,1305.6,412.2,1305.5,412z"/>
		<path class="st19" d="M1332.8,403.2c0,0.2-0.1,0.4-0.4,0.4h-11.4c-0.1,0-0.1,0-0.1,0.1c0,1,0.1,1.6,0.2,2.1
			c0.2,1.1,0.8,1.9,1.6,2.5c0.8,0.6,1.8,1,3,1c1.8,0,3.1-0.8,4.1-2.4c0.1-0.2,0.2-0.4,0.5-0.1l2.1,1.6c0.1,0.1,0.2,0.4,0.1,0.5
			c-0.7,1.2-1.6,2.2-2.9,2.9c-1.2,0.7-2.7,1.1-4.1,1.1c-1.7,0-3.1-0.5-4.4-1.3s-2.1-2.1-2.7-3.6c-0.6-1.6-0.8-3.5-0.8-5.8
			c0-1.9,0.1-3.5,0.4-4.5c0.5-1.8,1.3-3.4,2.5-4.4c1.3-1.1,2.9-1.6,4.7-1.6c2.4,0,4.2,0.7,5.4,2.1s1.9,3.4,2.2,6
			C1332.8,400.5,1332.8,401.7,1332.8,403.2z M1322.6,395.5c-0.7,0.6-1.1,1.3-1.3,2.3c-0.1,0.6-0.2,1.3-0.4,2.3c0,0.1,0,0.1,0.1,0.1
			h8.2c0.1,0,0.1,0,0.1-0.1c0-0.8-0.1-1.6-0.2-1.9c-0.2-1.1-0.7-1.9-1.4-2.5c-0.7-0.6-1.6-1-2.7-1
			C1324.1,394.7,1323.3,395.1,1322.6,395.5z"/>
		<path class="st19" d="M1347.2,392c0.1,0.1,0.2,0.2,0.1,0.5l-0.6,3c0,0.2-0.1,0.4-0.5,0.2c-0.4-0.2-0.8-0.2-1.4-0.2h-0.5
			c-1.1,0-2.1,0.5-2.8,1.3c-0.7,0.8-1.1,1.9-1.1,3.3V412c0,0.2-0.1,0.4-0.4,0.4h-2.8c-0.2,0-0.4-0.1-0.4-0.4v-19.8
			c0-0.2,0.1-0.4,0.4-0.4h2.8c0.2,0,0.4,0.1,0.4,0.4v2.2c0,0.1,0,0.1,0,0.1s0,0,0.1-0.1c1.1-1.9,2.5-2.8,4.3-2.8
			C1345.9,391.4,1346.6,391.7,1347.2,392z"/>
		<path class="st19" d="M1350.4,420v-2.4c0-0.2,0.1-0.4,0.4-0.4h0.1c1,0,1.7-0.1,2.3-0.4c0.6-0.2,1-0.7,1.3-1.3
			c0.4-0.6,0.7-1.7,1.1-3c0,0,0-0.1,0-0.2l-5.9-20.1V392c0-0.2,0.1-0.2,0.4-0.2h2.9c0.2,0,0.4,0.1,0.5,0.4l4,15.2c0,0,0,0.1,0.1,0.1
			c0,0,0.1,0,0.1-0.1l4-15.2c0.1-0.2,0.2-0.4,0.5-0.4h2.8c0.2,0,0.4,0.1,0.2,0.5l-6.5,21.6c-0.6,1.8-1.1,3.3-1.7,4.1
			c-0.6,0.8-1.2,1.6-2.2,1.9c-0.8,0.4-2.2,0.6-3.7,0.6h-0.2C1350.5,420.3,1350.4,420.2,1350.4,420z"/>
		<path class="st19" d="M1370.2,411.1c-1.3-1-2.2-2.4-2.8-4.2c-0.5-1.5-0.6-3.1-0.6-5c0-1.9,0.2-3.5,0.6-4.8
			c0.5-1.8,1.4-3.1,2.8-4.2c1.3-1,2.9-1.6,4.7-1.6c1.7,0,3.3,0.5,4.5,1.6c1.3,1,2.2,2.4,2.8,4.1c0.5,1.3,0.6,3,0.6,4.8
			c0,1.9-0.2,3.5-0.6,5c-0.5,1.8-1.4,3.3-2.8,4.2s-2.8,1.6-4.6,1.6C1373.1,412.6,1371.5,412.1,1370.2,411.1z M1377.3,408.4
			c0.7-0.6,1.2-1.5,1.6-2.5c0.2-1,0.4-2.3,0.4-3.9c0-1.6-0.1-2.8-0.4-3.7c-0.4-1.1-0.8-1.9-1.6-2.5c-0.7-0.6-1.6-1-2.7-1
			c-1,0-1.8,0.4-2.5,1s-1.2,1.5-1.6,2.5c-0.2,1-0.4,2.2-0.4,3.7c0,1.6,0.1,2.8,0.4,3.9c0.2,1.1,0.8,1.9,1.6,2.5c0.7,0.6,1.6,1,2.7,1
			C1375.7,409.2,1376.6,409,1377.3,408.4z"/>
		<path class="st19" d="M1400,393.4c1.1,1.3,1.7,3,1.7,5.2V412c0,0.2-0.1,0.4-0.4,0.4h-2.8c-0.2,0-0.4-0.1-0.4-0.4v-12.6
			c0-1.3-0.4-2.4-1.1-3.3s-1.6-1.2-2.8-1.2c-1.1,0-2.1,0.5-2.8,1.2c-0.7,0.7-1.1,1.9-1.1,3.3V412c0,0.2-0.1,0.4-0.4,0.4h-2.8
			c-0.2,0-0.4-0.1-0.4-0.4v-19.8c0-0.2,0.1-0.4,0.4-0.4h2.8c0.2,0,0.4,0.1,0.4,0.4v1.5v0.1c0,0,0,0,0.1,0c1-1.5,2.5-2.2,4.6-2.2
			C1397.4,391.4,1398.8,392,1400,393.4z"/>
		<path class="st19" d="M1421.2,403.2c0,0.2-0.1,0.4-0.4,0.4h-11.4c-0.1,0-0.1,0-0.1,0.1c0,1,0.1,1.6,0.2,2.1
			c0.2,1.1,0.8,1.9,1.6,2.5c0.8,0.6,1.8,1,3,1c1.8,0,3.1-0.8,4.1-2.4c0.1-0.2,0.2-0.4,0.5-0.1l2.1,1.6c0.1,0.1,0.2,0.4,0.1,0.5
			c-0.7,1.2-1.6,2.2-2.9,2.9c-1.2,0.7-2.7,1.1-4.1,1.1c-1.7,0-3.1-0.5-4.3-1.3c-1.2-0.8-2.1-2.1-2.7-3.6c-0.6-1.6-0.8-3.5-0.8-5.8
			c0-1.9,0.1-3.5,0.4-4.5c0.5-1.8,1.3-3.4,2.5-4.4c1.3-1.1,2.9-1.6,4.7-1.6c2.4,0,4.2,0.7,5.4,2.1s1.9,3.4,2.2,6
			C1421.2,400.5,1421.3,401.7,1421.2,403.2z M1411,395.5c-0.7,0.6-1.1,1.3-1.3,2.3c-0.1,0.6-0.2,1.3-0.4,2.3c0,0.1,0,0.1,0.1,0.1
			h8.2c0.1,0,0.1,0,0.1-0.1c0-0.8-0.1-1.6-0.2-1.9c-0.2-1.1-0.7-1.9-1.4-2.5s-1.6-1-2.7-1C1412.5,394.7,1411.6,395.1,1411,395.5z"/>
	</g>
</g>
<g>
	<path class="st9" d="M813.4,435.5l-0.3,0.7c-0.1,0.2-0.2,0.4-0.5,0.6c0.4,0.4,0.7,0.9,1,1.6c0.1,0.3,0.2,0.6,0.3,0.9
		c0.1,0.3,0.2,0.7,0.3,1.1l0.2,1.4v0.9l-0.1,1.6c-0.1,0.6-0.4,1.8-0.9,3.5c-0.5,1.8-2.1,2.6-4.8,2.6c-1.3,0-2.2-0.4-2.8-1.1
		l-0.6-0.7l-0.3-0.8c-0.1,0.3-0.2,0.6-0.4,0.8c-0.2,0.2-0.5,0.6-1.1,1.1c-0.6,0.5-1.5,0.7-2.8,0.7c-1.5,0-2.7-0.5-3.6-1.4
		c-0.9-0.9-1.5-2-1.6-3.1c-0.1-0.6-0.1-1.1-0.2-1.6c-0.1-0.5-0.1-0.9-0.1-1.3c0-0.9,0.1-1.7,0.2-2.4s0.4-1.3,0.7-2.1
		s0.6-1.3,0.9-1.6h-1.5v-1.4h1l0-0.7c0-0.4,0.1-0.8,0.2-1.2c0.2-0.5,0.4-0.9,0.8-1.2c0.4-0.4,0.9-0.7,1.5-0.9
		c0.3-0.1,0.6-0.1,0.9-0.2c0.3-0.1,0.6-0.1,1-0.1l1.2,0.1c0.4,0.1,0.8,0.1,1.1,0.3c0.4,0.1,0.7,0.3,1.1,0.8c0.4,0.4,0.6,0.8,0.7,1.4
		c0.2-0.5,0.4-1,0.8-1.3c0.4-0.3,0.9-0.6,1.5-0.9c0.6-0.2,1.3-0.3,2.1-0.3h1.1c0.4,0,0.8,0.1,1.2,0.4c0.4,0.2,0.8,0.6,1.2,1.1
		c0.4,0.6,0.5,1.2,0.5,1.8V435.5z M800.5,448.9c1.2,0,2.1-0.4,2.6-1.1s0.9-1.6,0.9-2.5v-4.4h1.9v4.4c0,1.1,0.2,1.9,0.7,2.6
		c0.4,0.7,1.2,1,2.2,1c0.6,0,1.1-0.1,1.6-0.4c0.5-0.2,0.9-0.6,1.2-1.1c0.3-0.5,0.7-1.2,1-2.2c0.1-0.5,0.2-0.9,0.3-1.4
		c0.1-0.5,0.1-1,0.1-1.6c0-1.2-0.2-2.2-0.5-2.9c-0.3-0.8-0.7-1.4-1.2-1.7c-0.5-0.3-1-0.5-1.6-0.6H808h-5.8h-0.5h-0.5h-1.4
		c-0.3,0-0.5,0-0.7,0.1c-0.2,0.1-0.4,0.2-0.7,0.4c-0.5,0.3-0.8,0.9-1.2,1.8c-0.3,0.9-0.5,1.8-0.5,2.5v0.5v0.6l0.1,1.8
		c0.1,0.6,0.3,1.4,0.8,2.4C798.1,448.4,799.1,448.9,800.5,448.9z M799.1,433.2c-0.3,0.2-0.6,0.5-0.8,1.1c-0.2,0.5-0.3,1-0.3,1.4h5.7
		c0-0.5-0.1-0.9-0.3-1.3s-0.5-0.7-0.9-1s-1.1-0.4-2-0.4c-0.5,0-0.8,0-0.9,0C799.6,433,799.4,433.1,799.1,433.2z M811.7,434.1
		c-0.4-0.7-1.2-1.1-2.4-1.1c-0.9,0-1.7,0.2-2.3,0.7c-0.6,0.5-1,1.2-1,2h3.7c0.6,0,1,0,1.2,0l0.8,0.3c0.2-0.4,0.3-0.7,0.3-1.1
		C811.9,434.7,811.8,434.4,811.7,434.1z"/>
	<path class="st9" d="M824.3,450.5c-1.2,0-2.3-0.2-3.4-0.7c-1-0.5-1.9-1-2.7-1.7c-0.8-0.7-1.4-1.6-1.9-2.6c-0.5-1.1-0.8-2.3-0.8-3.7
		c0-2.5,0.5-4.6,1.6-6.4c1-1.8,2.5-3,4.5-3.5c2.3-0.9,3.9-1.8,4.9-2.6s1.4-1.6,1.4-2.4h2.1c-0.1,0.6-0.2,1.1-0.4,1.5
		c-0.2,0.5-0.6,0.9-1.1,1.2l-1.7,1l-1.4,0.9c0.4,0,0.9,0,1.4,0.1s1,0.2,1.6,0.5c0.6,0.2,1,0.5,1.4,0.7c0.3,0.2,0.8,0.6,1.4,1.3
		c0.6,0.7,1,1.5,1.4,2.5s0.6,2,0.6,3.1c0,2-0.2,3.7-0.7,5.2c-0.5,1.4-1.2,2.5-2.1,3.3c-0.8,0.6-1.7,1.2-2.7,1.6
		C826.4,450.3,825.4,450.5,824.3,450.5z M817.2,441.7c0,1.8,0.7,3.5,2.2,5c1.4,1.5,3.1,2.2,4.9,2.2c2.1,0,3.9-0.8,5.2-2.2
		c1.3-1.5,2-3.2,2-5c0-2.6-0.5-4.7-1.6-6.3c-1-1.6-2.8-2.4-5.3-2.4c-2.2,0-3.9,0.5-5,1.6c-1.1,1.1-1.7,2.2-2.1,3.3
		C817.3,438.9,817.2,440.2,817.2,441.7z"/>
	<path class="st9" d="M834.8,433.9v-1.5h5.4v1.4l-0.9,1.4l-1.4,2.3c-0.6,1.1-1.1,2.3-1.5,3.6c-0.2,0.6-0.4,1.2-0.5,1.9
		c-0.1,0.7-0.2,1.2-0.2,1.5c0,0.3,0,0.6,0,0.8c0,0.3,0,0.5,0,0.8c0.1,0.3,0.1,0.5,0.2,0.8c0,0.3,0.2,0.6,0.4,0.9
		c0.2,0.3,0.5,0.6,0.8,0.7c0.3,0.2,0.6,0.2,1,0.2c0.5,0,0.9-0.1,1.2-0.4c0.3-0.2,0.5-0.6,0.6-1.1c0.1-0.5,0.2-0.9,0.2-1.1
		c0-0.2,0-0.4,0-0.5V445h0.9c0.3,0,0.5,0,0.6-0.1c0,1.2-0.1,2.2-0.2,2.9c-0.1,0.7-0.4,1.3-0.8,1.7c-0.4,0.4-0.9,0.7-1.5,0.8
		l-1.3,0.2c-1.1,0-2-0.3-2.5-1c-0.4-0.6-0.7-1.4-0.9-2.2c-0.1-0.8-0.2-1.4-0.2-1.9c0-1.1,0.1-2.1,0.3-3c0.2-0.9,0.5-1.9,1.1-3
		l1.4-2.9c0.2-0.3,0.4-0.7,0.6-1.2c0.2-0.4,0.5-0.9,0.9-1.3H834.8z"/>
	<path class="st9" d="M860.7,435.5l-0.3,0.7c-0.1,0.2-0.2,0.4-0.5,0.6c0.4,0.4,0.7,0.9,1,1.6c0.1,0.3,0.2,0.6,0.3,0.9
		c0.1,0.3,0.2,0.7,0.3,1.1l0.2,1.4v0.9l-0.1,1.6c-0.1,0.6-0.4,1.8-0.9,3.5c-0.5,1.8-2.1,2.6-4.8,2.6c-1.3,0-2.2-0.4-2.8-1.1
		l-0.6-0.7l-0.3-0.8c-0.1,0.3-0.2,0.6-0.4,0.8c-0.2,0.2-0.5,0.6-1.1,1.1c-0.6,0.5-1.5,0.7-2.8,0.7c-1.5,0-2.7-0.5-3.6-1.4
		c-0.9-0.9-1.5-2-1.6-3.1c-0.1-0.6-0.1-1.1-0.2-1.6c-0.1-0.5-0.1-0.9-0.1-1.3c0-0.9,0.1-1.7,0.2-2.4s0.4-1.3,0.7-2.1
		s0.6-1.3,0.9-1.6h-1.5v-1.4h1l0-0.7c0-0.4,0.1-0.8,0.2-1.2c0.2-0.5,0.4-0.9,0.8-1.2c0.4-0.4,0.9-0.7,1.5-0.9
		c0.3-0.1,0.6-0.1,0.9-0.2c0.3-0.1,0.6-0.1,1-0.1l1.2,0.1c0.4,0.1,0.8,0.1,1.1,0.3c0.4,0.1,0.7,0.3,1.1,0.8c0.4,0.4,0.6,0.8,0.7,1.4
		c0.2-0.5,0.4-1,0.8-1.3c0.4-0.3,0.9-0.6,1.5-0.9c0.6-0.2,1.3-0.3,2.1-0.3h1.1c0.4,0,0.8,0.1,1.2,0.4c0.4,0.2,0.8,0.6,1.2,1.1
		c0.4,0.6,0.5,1.2,0.5,1.8V435.5z M847.8,448.9c1.2,0,2.1-0.4,2.6-1.1s0.9-1.6,0.9-2.5v-4.4h1.9v4.4c0,1.1,0.2,1.9,0.7,2.6
		c0.4,0.7,1.2,1,2.2,1c0.6,0,1.1-0.1,1.6-0.4c0.5-0.2,0.9-0.6,1.2-1.1c0.3-0.5,0.7-1.2,1-2.2c0.1-0.5,0.2-0.9,0.3-1.4
		c0.1-0.5,0.1-1,0.1-1.6c0-1.2-0.2-2.2-0.5-2.9c-0.3-0.8-0.7-1.4-1.2-1.7s-1-0.5-1.6-0.6h-1.6h-5.8H849h-0.5H847
		c-0.3,0-0.5,0-0.7,0.1c-0.2,0.1-0.4,0.2-0.7,0.4c-0.5,0.3-0.8,0.9-1.2,1.8c-0.3,0.9-0.5,1.8-0.5,2.5v0.5v0.6l0.1,1.8
		c0.1,0.6,0.3,1.4,0.8,2.4C845.4,448.4,846.3,448.9,847.8,448.9z M846.4,433.2c-0.3,0.2-0.6,0.5-0.8,1.1c-0.2,0.5-0.3,1-0.3,1.4h5.7
		c0-0.5-0.1-0.9-0.3-1.3s-0.5-0.7-0.9-1s-1.1-0.4-2-0.4c-0.5,0-0.8,0-0.9,0C846.8,433,846.6,433.1,846.4,433.2z M858.9,434.1
		c-0.4-0.7-1.2-1.1-2.4-1.1c-0.9,0-1.7,0.2-2.3,0.7s-1,1.2-1,2h3.7c0.6,0,1,0,1.2,0l0.8,0.3c0.2-0.4,0.3-0.7,0.3-1.1
		C859.1,434.7,859,434.4,858.9,434.1z"/>
	<path class="st9" d="M862.3,431.5h1.6c0.3,0,0.6,0,1,0.1c0.4,0.1,0.9,0.2,1.5,0.4c1,0.3,2,1.2,2.7,2.9c0.8,1.7,1.1,3.5,1.1,5.6
		c0,2.2-0.3,4-0.8,5.5c-0.5,1.4-1.2,2.5-2,3.1c-0.7,0.6-1.5,1-2.2,1.1c-0.8,0.2-1.8,0.3-3.1,0.3v-1.5h1.1c0.9,0,1.6-0.1,2.2-0.4
		c0.5-0.3,1-0.7,1.5-1.2c0.5-0.5,0.9-1.4,1.2-2.6s0.5-2.6,0.5-4.1c0-1.5-0.1-2.8-0.4-3.8c-0.3-1-0.8-1.8-1.4-2.5
		c-0.6-0.6-1.2-1-1.8-1.1c-0.5-0.1-1.2-0.2-2-0.2h-0.7V431.5z"/>
	<path class="st9" d="M880.4,450.5c-1.2,0-2.3-0.2-3.4-0.7c-1-0.5-1.9-1-2.7-1.7c-0.8-0.7-1.4-1.6-1.9-2.6s-0.8-2.3-0.8-3.7
		c0-2.5,0.5-4.6,1.6-6.4c1-1.8,2.5-3,4.5-3.5c2.3-0.9,3.9-1.8,4.9-2.6s1.4-1.6,1.4-2.4h2.1c-0.1,0.6-0.2,1.1-0.4,1.5
		c-0.2,0.5-0.6,0.9-1.1,1.2l-1.7,1l-1.4,0.9c0.4,0,0.9,0,1.4,0.1c0.5,0.1,1,0.2,1.6,0.5c0.6,0.2,1,0.5,1.4,0.7
		c0.3,0.2,0.8,0.6,1.4,1.3s1,1.5,1.4,2.5c0.4,1,0.6,2,0.6,3.1c0,2-0.2,3.7-0.7,5.2c-0.5,1.4-1.2,2.5-2.1,3.3
		c-0.8,0.6-1.7,1.2-2.7,1.6C882.6,450.3,881.5,450.5,880.4,450.5z M873.3,441.7c0,1.8,0.7,3.5,2.2,5c1.4,1.5,3.1,2.2,4.9,2.2
		c2.1,0,3.9-0.8,5.2-2.2s2-3.2,2-5c0-2.6-0.5-4.7-1.6-6.3c-1-1.6-2.8-2.4-5.3-2.4c-2.2,0-3.9,0.5-5,1.6c-1.1,1.1-1.7,2.2-2.1,3.3
		S873.3,440.2,873.3,441.7z"/>
	<path class="st9" d="M905.6,436.1l-1.7,0v-0.4c0-0.4,0.2-1,0.5-1.5c0.3-0.6,0.7-1.1,1.2-1.4c0.5-0.4,1.2-0.7,2.2-0.9
		c0.5-0.1,0.9-0.2,1.4-0.2c0.5-0.1,1-0.1,1.6-0.1c1.5,0,2.4,0.1,2.9,0.3c0.5,0.2,0.9,0.4,1.2,0.7l1,1.1l0.4,0.9c0,0.2,0,0.4,0,0.5
		c0,0.2,0,0.4,0,0.6c0.2-1.6,0.6-2.5,1.2-2.7s1.2-0.3,1.7-0.4h1.1h0.3h0.2v1.4h-0.6c-0.3,0-0.7,0.1-1.3,0.2
		c-0.6,0.1-0.9,0.7-0.9,1.6c1.1,0,1.9,0.3,2.4,1c0.5,0.7,0.7,1.4,0.7,2.3c0,0.3,0,0.6-0.1,0.9s-0.1,0.5-0.1,0.6
		c-0.1,0.6-0.6,1.1-1.6,1.5c-1,0.4-2,0.6-3,0.6v6.3h2.6v1.5h-2.6v5.2h-1.7v-5.2l-2.5,0h-2.5c-1.8,0-3.3-0.5-4.5-1.4
		c-1.2-0.9-1.9-2-2.2-3.1c-0.2-1.3-0.4-2.3-0.4-3c0-0.3,0-0.7,0-1c0-0.4,0.1-0.8,0.2-1.3c0.1-0.5,0.3-1.1,0.6-1.8
		c0.3-0.7,0.7-1.2,1.1-1.6c0.4-0.4,0.8-0.7,1.2-0.9s0.8-0.3,1.3-0.3l1.7-0.3h5.9c0-0.7-0.2-1.3-0.7-1.7c-0.4-0.4-0.9-0.7-1.3-0.8
		l-1-0.1h-1.1c-0.8,0-1.5,0.1-2.2,0.2c-0.7,0.2-1.3,0.4-1.8,0.8c-0.5,0.4-0.7,0.7-0.8,1.1V436.1z M906.7,437.8
		c-0.5,0.2-1,0.5-1.4,0.9c-0.2,0.3-0.5,0.9-0.9,1.6c-0.2,0.7-0.4,1.5-0.4,2.4c0,1,0.1,1.9,0.4,2.8s0.8,1.6,1.4,2.1
		c0.6,0.5,1.4,0.9,2.3,1.1c0.4,0.1,1,0.1,1.5,0.2c0.6,0,1.2,0.1,2,0.1h2.6v-11.7h-1.2h-1.3c-0.5,0-0.9,0-1.2,0
		c-0.3,0-0.8,0.1-1.6,0.2c-0.4,0-0.8,0-1.2,0.1S907.2,437.6,906.7,437.8z M916.1,441c1.2,0,2.1-0.2,2.4-0.5s0.6-0.7,0.7-1.1
		l-0.1-1.2c-0.1-0.3-0.3-0.5-0.6-0.7c-0.4-0.2-0.8-0.3-1.4-0.3h-1.1V441z"/>
	<path class="st9" d="M924.5,436.8h-1.6c0-1.6,0.3-2.8,0.9-3.8c0.6-1,1.6-1.5,3.1-1.5c0.5,0,0.9,0,1.2,0.1s0.7,0.3,1.2,0.6
		c0.5,0.3,0.7,0.9,0.7,1.7l0.8-0.8c0.1-0.1,0.2-0.2,0.5-0.4c0.3-0.2,0.5-0.4,0.8-0.6c0.7-0.4,1.8-0.6,3.2-0.6c1.3,0,2.5,0.2,3.7,0.7
		c0.8,0.3,1.4,0.6,1.8,1.1c0.4,0.4,0.8,1,1.3,1.8c0.4,0.7,0.7,1.6,0.9,2.7c0.1,0.6,0.2,1.1,0.2,1.7s0.1,1.1,0.1,1.8
		c0,0.7,0,1.3-0.1,2s-0.2,1.3-0.4,2.1c-0.3,1.3-0.9,2.3-1.8,3.2c-0.9,0.8-1.7,1.4-2.4,1.6l-1.7,0.3h-1.4H935h-0.2l0-1.4
		c0.6,0,1.1,0,1.4,0c0.3,0,0.8-0.1,1.3-0.2c0.8-0.2,1.5-0.6,2.1-1.1c0.6-0.6,1-1.2,1.4-2.1c0.4-0.8,0.5-1.8,0.5-2.8
		c0-1.4-0.1-2.7-0.3-4.1c-0.2-1.4-0.6-2.4-1.2-3.2c-0.6-0.7-1.2-1.3-1.9-1.7s-1.6-0.6-2.7-0.6c-0.6,0-1.3,0.1-2,0.3
		c-0.7,0.2-1.3,0.5-1.8,0.9c-0.5,0.4-0.8,0.7-1,1l-0.5,0.8l1.2,0c0.5,0,1.1,0.1,1.8,0.4s1.3,0.7,1.8,1.5c0.5,0.8,0.7,1.6,0.9,2.4
		c0.1,0.8,0.2,1.7,0.2,2.5c0,1.1-0.1,2-0.4,2.8c-0.2,0.8-0.6,1.5-1,2.1c-0.4,0.6-1,1.1-1.6,1.5c-0.6,0.4-1.2,0.7-1.6,0.8l-1.3,0.3
		l-1.4,0.1c-1.6,0-2.9-0.2-3.6-0.7c-0.7-0.5-1.2-0.9-1.6-1.3c-0.3-0.4-0.6-0.9-0.9-1.6c-0.2-0.7-0.4-1.5-0.5-2.5v-3.2v-2.1h1.4
		c0,0.7,0.4,1,1.2,1c0.9,0,1.5-0.3,1.9-0.8l1-1.7l1-2c0-0.7-0.1-1.2-0.2-1.4c-0.1-0.3-0.3-0.6-0.6-0.8c-0.2-0.3-0.7-0.4-1.3-0.4
		c-0.6,0-1,0.1-1.3,0.4c-0.3,0.3-0.5,0.7-0.7,1.2C924.5,435.1,924.5,435.9,924.5,436.8z M933.2,438.4c-0.3-0.3-0.8-0.6-1.4-0.7
		c-0.6-0.2-1.2-0.2-1.7-0.2h-0.3h-0.2l-1.1,2c-0.4,0.6-0.8,1.1-1.4,1.5c-0.6,0.4-1.2,0.6-2,0.6c-0.3,0-0.5,0-0.7,0l-0.6-0.3
		c0,0.3,0,0.8,0,1.5c0,0.7,0,1.2,0,1.6c0,0.5,0.1,1,0.2,1.4c0.1,0.4,0.3,0.8,0.6,1.2c0.4,0.7,0.9,1.2,1.6,1.5
		c0.7,0.3,1.7,0.5,2.9,0.5c1,0,1.9-0.2,2.8-0.7c0.9-0.5,1.5-1.1,1.9-1.8c0.2-0.4,0.3-0.7,0.4-0.9c0.1-0.3,0.2-0.6,0.3-1l0.2-2.1
		c0-0.8-0.1-1.6-0.3-2.3C934,439.4,933.7,438.8,933.2,438.4z"/>
	<path class="st9" d="M944.3,431.5h1.6c0.3,0,0.6,0,1,0.1c0.4,0.1,0.9,0.2,1.5,0.4c1,0.3,2,1.2,2.7,2.9c0.8,1.7,1.1,3.5,1.1,5.6
		c0,2.2-0.3,4-0.8,5.5c-0.5,1.4-1.2,2.5-2,3.1c-0.7,0.6-1.5,1-2.2,1.1c-0.8,0.2-1.8,0.3-3.1,0.3v-1.5h1.1c0.9,0,1.6-0.1,2.2-0.4
		c0.5-0.3,1-0.7,1.5-1.2c0.5-0.5,0.9-1.4,1.2-2.6s0.5-2.6,0.5-4.1c0-1.5-0.1-2.8-0.4-3.8c-0.3-1-0.8-1.8-1.4-2.5
		c-0.6-0.6-1.2-1-1.8-1.1c-0.5-0.1-1.2-0.2-2-0.2h-0.7V431.5z"/>
	<path class="st9" d="M959,433.2c-0.6,0.2-1,0.4-1.4,0.9c-0.4,0.4-0.8,1-1.2,1.7c-0.4,0.9-0.7,1.8-0.9,2.7l-0.2,1.8v1.1l0.1,2.1
		c0,0.5,0.1,0.8,0.2,1.1c0.1,0.3,0.2,0.7,0.4,1.1c0.3,0.8,0.9,1.5,1.5,2.2c0.7,0.7,1.7,1,3.2,1c1.5,0,2.6-0.4,3.3-1.1
		c0.7-0.8,1.2-1.6,1.4-2.5c0.1-0.4,0.2-0.8,0.2-1.3c0-0.4,0.1-0.9,0.1-1.5c0-0.7-0.1-1.2-0.2-1.7c-0.2-0.5-0.4-0.9-0.8-1.2
		c-0.4-0.2-0.8-0.4-1.2-0.5l-1.4-0.1h-0.4v2.9h-1.6v-3.2l0.1-1.5c0.1-0.5,0.3-1.2,0.7-2.3c0.4-1.1,1.1-1.9,2.1-2.5
		c1-0.6,2.5-0.9,4.3-0.9c1.8,0,3.3,0.7,4.4,2c1.1,1.3,1.8,2.7,1.9,4.2c0.1,1.5,0.2,2.6,0.2,3.3c0,0.9,0,1.6-0.1,2.3
		c-0.1,0.6-0.2,1.2-0.4,1.8c-0.3,1.1-0.7,1.9-1.1,2.5c-0.4,0.6-0.9,1.2-1.5,1.7c-0.6,0.5-1.3,0.8-2,1c-0.7,0.2-1.5,0.2-2.5,0.2V449
		h0.5c0.2,0,0.3,0,0.5,0c0.2,0,0.4-0.1,0.5-0.1c0.1,0,0.3-0.1,0.6-0.1c0.3-0.1,0.5-0.2,0.8-0.3c0.5-0.2,1-0.7,1.7-1.4
		c0.5-0.7,0.9-1.4,1.1-2.1l0.3-2v-1.7v-1c0-0.2,0-0.5,0-0.8c0-0.4-0.1-0.8-0.2-1.4c0-0.5-0.1-1-0.2-1.5c-0.2-0.5-0.4-1-0.8-1.5
		c-0.5-0.9-1.2-1.5-2-1.7c-0.3-0.1-0.7-0.2-1.1-0.3c-0.4-0.1-0.8-0.1-1.2-0.1c-0.7,0-1.3,0.1-1.8,0.2c-0.5,0.2-1.1,0.5-1.6,0.9
		c-0.4,0.4-0.7,0.8-0.9,1.4c-0.2,0.5-0.4,1.2-0.5,2l2.2,0.2c0.6,0,1,0.1,1.3,0.3c0.2,0.1,0.5,0.3,1,0.8c0.3,0.4,0.6,0.9,0.9,1.5
		c0.2,0.7,0.3,1.5,0.3,2.4c0,0.8-0.1,1.6-0.2,2.4c-0.1,0.8-0.3,1.4-0.6,2c-0.3,0.5-0.7,1.1-1.2,1.5c-0.4,0.4-0.9,0.7-1.5,1.1
		c-0.4,0.2-0.9,0.4-1.5,0.5c-0.6,0.1-1.3,0.1-2.2,0.1c-1.4,0-2.7-0.6-4-1.7c-1.3-1.1-2.1-2.4-2.3-3.7l-0.3-2.5v-1.2v-1
		c0-0.5,0-0.9,0-1.1c0-0.8,0.2-1.7,0.5-2.6s0.7-1.6,1.1-2.3s1-1.3,1.6-1.7c0.6-0.5,1.5-0.8,2.5-1.1h1.9l0,1.4l-1.4,0
		C959.7,433,959.4,433.1,959,433.2z"/>
	<path class="st9" d="M979.2,437.3h-1.6v-2c0-1.2,0.3-2.1,1-2.8c0.6-0.7,1.6-1,2.9-1c0.9,0,1.7,0.1,2.1,0.3c0.5,0.2,0.9,0.7,1.3,1.3
		l1.6-0.9c0.2-0.1,0.4-0.2,0.6-0.3s0.5-0.1,1-0.2c0.5-0.1,0.9-0.2,1.2-0.2s0.5,0,0.7,0c0.4,0,0.8,0,1.2,0c0.3,0.1,0.7,0.1,1,0.2
		c0.4,0.1,1,0.3,1.9,0.7c0.9,0.4,1.6,1,2.1,1.8c0.2,0.3,0.4,0.7,0.6,1.1c0.2,0.4,0.4,0.9,0.6,1.4c0.2,0.7,0.4,1.6,0.5,2.7l0.1,3.1
		c0,0.9-0.1,1.7-0.3,2.6c-0.2,0.8-0.6,1.8-1.1,2.7c-0.5,1-1.4,1.7-2.7,2.1s-2.7,0.7-4.5,0.7v-1.5c0.3,0,0.7,0,1.1,0
		c0.5-0.1,1-0.1,1.2-0.1c0.8-0.1,1.5-0.4,2-0.7c0.5-0.4,0.9-0.8,1.3-1.2c0.3-0.4,0.6-1,0.8-1.6l0.5-2.1l0.1-2.2c0-0.4,0-0.8,0-1.2
		c-0.1-0.4-0.1-0.7-0.2-1c0-0.3-0.1-0.5-0.2-0.8s-0.2-0.6-0.4-1c-0.2-0.7-0.5-1.3-0.9-1.8c-0.4-0.6-0.8-1-1.4-1.3
		c-0.5-0.3-1.1-0.6-1.6-0.7c-0.5-0.2-1.1-0.3-1.8-0.3c-0.6,0-1.3,0.1-1.8,0.3l-1.5,0.6c-0.5,0.2-1,0.6-1.6,1v0.6c0.3,0,0.6,0,0.9,0
		s0.6,0,0.9,0c0.5,0,1,0.2,1.6,0.5c0.6,0.2,1.1,0.6,1.5,1.2c0.4,0.6,0.7,1.3,1,2.1c0.3,0.9,0.4,1.9,0.4,3.1c0,0.3,0,0.6,0,1
		c0,0.4-0.1,1-0.2,1.8c-0.1,0.8-0.5,1.7-1.4,2.7c-0.8,1-1.8,1.7-2.9,2c-1.1,0.4-2.2,0.5-3.3,0.5c-1.1,0-2-0.1-2.7-0.4
		c-0.7-0.2-1.4-0.6-2-1.1c-0.6-0.5-1.1-1.2-1.4-2.1c-0.4-0.9-0.5-1.9-0.5-2.8c0-0.6,0.1-1.2,0.3-1.7h-0.7v-1.8l7-5.9l-0.2-0.6
		c-0.1-0.2-0.3-0.4-0.6-0.7l-0.7-0.3l-1.1-0.1c-0.5,0-1,0.2-1.4,0.5s-0.6,1-0.6,2V437.3z M983.3,437l-5.6,4.3l1.3,0
		c-0.2,0.5-0.3,1.3-0.3,2.3c0,1.2,0.2,2.1,0.5,2.8c0.4,0.8,1,1.4,1.8,1.9c0.8,0.4,1.6,0.7,2.6,0.7h0.8c1.1,0,2.1-0.2,2.8-0.6
		c0.7-0.4,1.3-0.9,1.7-1.4c0.4-0.5,0.7-1.2,0.9-1.9c0.1-0.4,0.2-0.8,0.2-1.2c0-0.4,0.1-0.9,0.1-1.5c0-0.3,0-0.6,0-1
		s-0.1-0.8-0.3-1.3c-0.2-0.7-0.4-1.2-0.8-1.7c-0.3-0.4-0.7-0.8-1.3-1c-0.6-0.2-1.1-0.4-1.7-0.4H983.3z"/>
	<path class="st9" d="M1016,447.1c-0.6,1.4-1.3,2.2-2.1,2.6c-0.4,0.2-0.7,0.3-0.9,0.4c-0.2,0.1-0.5,0.1-0.8,0.2l-1,0.1l-1-0.1
		l-1-0.4c-0.3-0.2-0.4-0.3-0.5-0.3c-0.2-0.1-0.3-0.2-0.4-0.3l-0.7-1.1l-0.2,0.5c-0.1,0.2-0.3,0.4-0.7,0.8c-0.4,0.3-0.9,0.6-1.4,0.8
		c-0.5,0.1-1,0.2-1.5,0.2c-0.6,0-1.3-0.1-2-0.4c-0.7-0.2-1.3-0.7-1.7-1.2s-0.8-1.3-1.1-2s-0.4-1.6-0.5-2.5l-0.2-2.4
		c0-0.8,0.1-2,0.2-3.6c0.2-1.6,0.8-3,1.8-4.3c1.1-1.3,2.1-2.1,3.1-2.3c1-0.2,1.8-0.3,2.3-0.3c0.2,0,0.5,0,0.9,0s0.7,0.1,1.1,0.1v1.4
		h-0.8h-0.8h-0.9c-0.3,0-0.7,0.1-1,0.2c-0.4,0.1-0.8,0.3-1.2,0.6c-0.4,0.3-0.9,0.7-1.3,1.3c-0.4,0.6-0.8,1.4-1.1,2.4
		c-0.3,1.1-0.5,2.3-0.5,3.7c0,0.6,0,1.2,0,1.8c0,0.5,0.1,1.1,0.2,1.8c0.1,0.6,0.3,1.3,0.6,2c0.3,0.7,0.7,1.2,1.3,1.6
		c0.6,0.4,1.2,0.5,1.7,0.5c0.8-0.1,1.5-0.3,1.9-0.8s0.7-1.1,0.8-1.8c0.1-0.6,0.2-1.1,0.2-1.4c0-0.3,0-0.6,0-0.7v-2.7h1.9v2.6v1.9
		c0,0.4,0.1,0.9,0.2,1.4s0.5,0.9,1,1.2c0.5,0.3,1,0.4,1.6,0.4c0.3,0,0.6-0.1,1-0.2c0.4-0.1,0.8-0.4,1.1-0.8c0.4-0.4,0.7-1,1.1-1.9
		c0.4-0.9,0.6-2.1,0.6-3.7c0-0.4,0-0.8-0.1-1.2c-0.1-0.4-0.1-0.7-0.2-1c-0.2-1-0.5-1.7-1-2.2s-1.5-0.6-3.2-0.6h-3.4
		c0-1.5,0.1-2.5,0.3-3.1c0.2-0.6,0.5-1.1,0.9-1.5c0.4-0.3,0.8-0.6,1.4-0.9c0.5-0.2,1.2-0.3,2.1-0.3c1.5,0,2.5,0.4,3,1.1
		c0.5,0.7,0.8,1.3,0.9,1.7l0.2,1.1v0.6h-1.5v-0.5c0-1.8-1-2.7-2.9-2.7c-0.7,0-1.3,0.2-1.7,0.6c-0.5,0.4-0.7,1.2-0.7,2.2h0.5h0.9h0.9
		c0.7,0,1.3,0,1.8,0.1c0.5,0.1,1,0.3,1.6,0.7c0.6,0.4,1,1,1.3,1.8c0.3,0.8,0.4,1.6,0.4,2.6v0.8v0.9
		C1016.8,444.4,1016.6,445.8,1016,447.1z"/>
	<path class="st9" d="M1020.7,437.4h-1.5l0-0.3v-0.6c0-0.3,0-0.5,0-0.8c0-0.2,0-0.6,0.1-1.1c0.1-0.5,0.2-0.9,0.4-1.3
		c0.2-0.4,0.6-0.9,1.1-1.3s1.2-0.6,2-0.6c0.9,0,1.7,0.1,2.2,0.4c0.5,0.3,0.9,0.8,1.1,1.5c0.6-0.7,1.4-1.2,2.2-1.5
		c0.8-0.3,1.9-0.5,3.2-0.5c2.2,0,3.9,0.6,5,1.7c1.1,1.1,1.8,2.2,2.1,3.2l0.6,2.4l0.2,1.6v1.1c0,1,0,1.8-0.1,2.4
		c-0.2,1.3-0.6,2.5-1.1,3.5c-0.5,0.9-1.2,1.7-2.3,2.4c-0.8,0.5-1.9,0.8-3.3,0.8v-1.5c0.7,0,1.2-0.1,1.7-0.2s1-0.5,1.7-1
		c0.6-0.6,1.1-1.4,1.5-2.5c0.3-1.1,0.5-2.2,0.5-3.3c0-0.4,0-0.9,0-1.4c-0.1-0.5-0.1-0.8-0.2-1c0-0.8-0.2-1.6-0.6-2.4
		c-0.3-0.8-0.7-1.4-1.2-2c-0.5-0.6-1-1.1-1.7-1.5c-0.7-0.4-1.6-0.6-2.8-0.6h-1c-0.4,0-0.8,0-1.2,0.1s-0.8,0.2-1.2,0.4
		c-0.8,0.3-1.4,0.7-1.7,1.3l0,0.9c0.4,0,0.8,0,1.3,0c0.5,0,1,0.1,1.6,0.3c0.8,0.1,1.5,0.5,2.1,1c0.5,0.4,1,1.1,1.4,1.9
		c0.3,0.7,0.5,1.5,0.7,2.4c0.2,0.9,0.3,1.7,0.3,2.3v0.5c0,0.2,0,0.5,0,0.8l-0.3,1.5c-0.2,0.8-0.5,1.5-0.9,2.1
		c-0.4,0.5-0.9,1-1.5,1.3c-0.6,0.3-1.4,0.5-2.3,0.5c-0.8,0-1.3-0.1-1.8-0.4l-0.9-0.7c-0.2-0.1-0.3-0.4-0.5-0.8
		c-0.2,0.5-0.5,0.9-1.1,1.3c-0.6,0.4-1.3,0.6-2.2,0.6c-0.7,0-1.4-0.2-2-0.6c-0.5-0.4-1-0.9-1.3-1.6c-0.3-0.8-0.5-1.7-0.5-2.7
		c0-0.6,0-1.1,0.1-1.5c0.1-0.4,0.2-0.8,0.5-1.2h-0.7v-1.8l6.4-5.9v-1.2c0-0.3-0.2-0.6-0.5-0.8s-0.7-0.3-1.1-0.3
		c-0.5,0-0.9,0.1-1.3,0.4c-0.3,0.3-0.5,0.7-0.7,1.2c-0.1,0.5-0.2,0.9-0.2,1.1c0,0.2,0,0.5,0,1v0.4V437.4z M1031,447.5
		c0.3-0.4,0.5-1,0.7-1.7s0.2-1.4,0.2-2.1v-0.4c0-0.2,0-0.4,0-0.8l-0.3-1.7c-0.2-0.7-0.5-1.5-1-2.2c-0.5-0.7-1.3-1.2-2.6-1.5h-0.5
		h-0.5h-0.5h-1.1l-0.8,0l-5,4.6l1.1,0l0.1,0.6l0,0.6l-0.5,0.7l-0.3,0.6l-0.1,0.6v0.8v0.6l0.2,1.1c0.1,0.5,0.3,0.9,0.8,1.2
		s1,0.5,1.6,0.5c0.5,0,1-0.2,1.4-0.5c0.4-0.4,0.7-0.9,0.7-1.6v-2.3v-2.1h1.5v1.9v0.9l0.1,1.3c0.1,0.6,0.3,1.1,0.5,1.4
		s0.5,0.5,0.9,0.7c0.2,0.1,0.6,0.1,1,0.2c0.4,0,0.8-0.1,1.2-0.3C1030.2,448.4,1030.6,448,1031,447.5z"/>
	<path class="st9" d="M1042.9,448.4c-0.8-0.7-1.4-1.7-1.8-2.9c-0.4-1.3-0.6-2.6-0.6-3.9c0-2,0.4-3.6,1.2-5c0.8-1.4,1.8-2,3.2-2h1.9
		h2.5v1.6c-1.1,0-2,0-2.8,0c-0.7,0-1.3,0.1-1.7,0.2c-0.4,0.1-0.9,0.4-1.4,1c-0.4,0.5-0.7,1.1-0.9,1.8c-0.2,0.6-0.2,1.3-0.2,2.1
		l0.1,1.8l0.3,1.6c0.4,0.9,1,1.8,1.8,2.7c0.8,0.9,2.2,1.4,4.2,1.4c1.3,0,2.4-0.3,3.5-1c1.1-0.7,1.9-1.4,2.4-2.3s0.9-1.9,1.2-3.1
		c0.1-0.5,0.2-1,0.3-1.7s0.1-1.2,0.1-1.8c0-0.6,0-1.3-0.1-1.9c-0.1-0.6-0.1-1.1-0.2-1.5c-0.2-1.6-0.8-3.1-1.8-4.8s-2.8-2.4-5.4-2.4
		c-1.8,0-3.4,0.5-4.6,1.5c-1.2,1-1.9,2.2-1.9,3.6h-1.8c0.1-1.5,0.6-2.8,1.5-3.7c0.8-0.9,1.7-1.6,2.5-2c0.8-0.3,1.6-0.6,2.4-0.7
		c0.8-0.2,1.5-0.2,2.3-0.2c0.5,0,0.8,0,1.1,0.1c0.4,0,0.6,0.1,0.7,0.1c0.1,0,0.5,0.1,1,0.2c0.6,0.1,1.2,0.5,2,1
		c0.7,0.5,1.3,1.2,1.9,2.1s1.1,1.9,1.5,3.1c0.4,1.1,0.6,2.3,0.6,3.6v1v0.7c0,4-0.7,6.8-2.1,8.2c-1.4,1.4-2.6,2.4-3.7,2.8
		c-1.1,0.5-2.1,0.7-3.3,0.7c-1.4,0-2.5-0.2-3.4-0.5C1044.7,449.8,1043.8,449.2,1042.9,448.4z"/>
	<path class="st9" d="M1082.1,438.5c-0.2-0.2-0.6-0.3-1.2-0.4l-1.8-0.1h-0.4l0-1.6h1.5c0.8,0,1.5,0,1.9,0.1s0.9,0.4,1.5,0.9
		c0.6,0.5,1.1,1.2,1.4,2c0.3,0.8,0.4,1.7,0.4,2.6c0,2.1-0.2,3.6-0.7,4.6c-0.5,1-1,1.7-1.5,2.2c-0.5,0.5-1.2,0.9-1.9,1.3
		c-0.7,0.3-1.5,0.4-2.5,0.4c-0.5,0-0.8,0-1.1,0c-0.3,0-0.7-0.1-1.3-0.2c-0.5-0.2-1-0.4-1.4-0.7l-1.3-1.2c-0.5-0.5-0.9-1.2-1.2-2
		c-0.3-0.8-0.6-1.7-0.7-2.6l-0.2-2.2l0.1-2.1c0-0.6,0.1-1.3,0.3-1.9c0.1-0.3,0.2-0.7,0.4-1s0.3-0.7,0.5-1.1c0.3-0.7,0.9-1.4,1.6-2.2
		s1.5-1.2,2.4-1.4c0.8-0.2,1.6-0.3,2.3-0.3c0.6,0,1.2,0,1.7,0.1c0.5,0.1,1.1,0.3,1.7,0.5c0.7,0.2,1.3,0.7,1.9,1.4
		c0.6,0.7,0.9,1.7,1.1,3h-1.9c0.1-0.6-0.1-1.2-0.6-1.8c-0.5-0.6-1-1-1.6-1.3c-0.3-0.1-0.6-0.2-0.9-0.2c-0.3,0-0.7-0.1-1.2-0.1
		c-0.8,0-1.5,0.1-2.1,0.3c-1.1,0.5-2,1.3-2.6,2.4c-0.6,1-0.9,2-1.1,3.1l-0.2,2c0,0.8,0.1,1.6,0.2,2.6c0.1,0.5,0.2,0.9,0.3,1.3
		c0.1,0.4,0.2,0.8,0.4,1.2c0.3,0.8,0.9,1.4,1.7,2.1c0.8,0.6,1.8,0.9,3.1,0.9c0.8,0,1.6-0.3,2.4-0.8c0.8-0.6,1.4-1.3,1.7-2.2
		c0.4-1.1,0.6-2.2,0.6-3.3c0-0.5-0.1-1.2-0.2-2.1C1083.2,439.6,1082.8,438.9,1082.1,438.5z"/>
	<path class="st9" d="M1103,435.8h-0.6h-0.8l0.1-0.8c0-0.5-0.1-0.8-0.3-1.1c-0.2-0.2-0.5-0.5-0.9-0.6c-0.4-0.2-0.9-0.3-1.6-0.3
		c-0.7,0-1.3,0.3-1.9,0.8s-0.8,1.2-0.8,2h4.2c0.5,0,1,0.1,1.4,0.3c0.4,0.2,0.7,0.5,1.1,0.9c0.8,1.1,1.2,2.5,1.2,4.2
		c0,0.5,0,0.9,0,1.2c0,0.3-0.1,0.8-0.2,1.7s-0.5,1.8-1.2,2.8c-0.6,0.9-1.3,1.6-2.1,2.1s-1.5,0.8-1.9,1l-1.7,0.4l-2,0.1
		c-0.9,0-1.7-0.1-2.4-0.3c-0.2,0-0.5-0.1-0.7-0.1c-0.2-0.1-0.5-0.2-0.9-0.3c-0.6-0.2-1.3-0.6-2-1.1c-0.8-0.5-1.4-1.4-1.9-2.5
		s-0.8-2.5-0.8-4c0-1.4,0.2-2.6,0.5-3.5c0.3-0.9,0.8-1.5,1.4-2c0.6-0.4,1.1-0.7,1.5-0.7l1.3-0.2h3.1c0-1.2-0.3-2-0.8-2.3
		s-1.1-0.4-1.5-0.4c-0.6,0-1.1,0.1-1.5,0.3c-0.4,0.2-0.7,0.4-1,0.9s-0.4,1-0.4,1.6h-1.6l0-0.6c0-1.1,0.4-1.9,1.3-2.7
		s1.6-1.1,2.4-1.1c1.2,0,2.3,0.2,3,0.6c0.7,0.3,1.2,1,1.4,2c0.2-0.9,0.7-1.5,1.3-1.9c0.6-0.4,1.2-0.6,1.6-0.7h1.1
		c0.7,0,1.5,0.1,2.1,0.4s1.1,0.7,1.4,1.3c0.3,0.6,0.4,1.2,0.4,1.8L1103,435.8z M1099.6,437.1h-4.5h-3.3c-1.2,0-2,0.2-2.7,0.7
		c-0.6,0.5-1,1-1.2,1.7l-0.2,1.4v0.9c0,0.7,0.1,1.5,0.2,2.2c0.1,0.8,0.4,1.5,0.9,2.3c0.4,0.8,1.2,1.4,2.3,1.8s2.4,0.7,3.9,0.7
		c1.2,0,2.2-0.1,3-0.3s1.6-0.7,2.4-1.4c0.8-0.7,1.3-1.6,1.6-2.6s0.5-1.8,0.5-2.6v-0.6c0-1.2-0.2-2.2-0.5-3
		S1100.8,437.1,1099.6,437.1z"/>
	<path class="st9" d="M1114,450.5c-1.2,0-2.3-0.2-3.4-0.7c-1-0.5-1.9-1-2.7-1.7c-0.8-0.7-1.4-1.6-1.9-2.6s-0.8-2.3-0.8-3.7
		c0-2.5,0.5-4.6,1.6-6.4c1-1.8,2.5-3,4.5-3.5c2.3-0.9,3.9-1.8,4.9-2.6s1.4-1.6,1.4-2.4h2.1c-0.1,0.6-0.2,1.1-0.4,1.5
		c-0.2,0.5-0.6,0.9-1.1,1.2l-1.7,1l-1.4,0.9c0.4,0,0.9,0,1.4,0.1c0.5,0.1,1,0.2,1.6,0.5c0.6,0.2,1,0.5,1.4,0.7
		c0.3,0.2,0.8,0.6,1.4,1.3s1,1.5,1.4,2.5c0.4,1,0.6,2,0.6,3.1c0,2-0.2,3.7-0.7,5.2c-0.5,1.4-1.2,2.5-2.1,3.3
		c-0.8,0.6-1.7,1.2-2.7,1.6C1116.1,450.3,1115.1,450.5,1114,450.5z M1106.9,441.7c0,1.8,0.7,3.5,2.2,5c1.4,1.5,3.1,2.2,4.9,2.2
		c2.1,0,3.9-0.8,5.2-2.2s2-3.2,2-5c0-2.6-0.5-4.7-1.6-6.3c-1-1.6-2.8-2.4-5.3-2.4c-2.2,0-3.9,0.5-5,1.6c-1.1,1.1-1.7,2.2-2.1,3.3
		S1106.9,440.2,1106.9,441.7z"/>
	<path class="st9" d="M1142.7,433.6c0.2,0.1,0.4,0.4,0.5,0.7l0.1,1c0,0.4,0,0.8-0.1,1.2l-0.3,1.2l-0.3,1.3l-0.1,0.9
		c0,0.8,0.2,1.4,0.7,1.8c0.4,0.4,1,0.6,1.7,0.6c0.9,0,1.6-0.4,2-1.1c0.4-0.7,0.7-1.7,0.7-2.8v-1.4c0-0.5-0.3-1.1-0.8-1.7
		c-0.4-0.6-1.3-0.9-2.7-0.9v-1.3h0.7c0.2,0,0.4,0,0.5,0s0.5,0.1,1,0.2c0.7,0.2,1.4,0.7,2,1.8c0.6,1,0.9,2.2,0.9,3.6
		c0,0.3,0,0.6,0,0.9c0,0.3-0.1,0.7-0.3,1.2c-0.2,0.6-0.5,1.1-0.9,1.6s-1,0.9-1.6,1.2c-0.6,0.3-1.2,0.4-1.8,0.4l-1.1-0.1
		c-0.5-0.1-1.2-0.4-1.8-1.1c-0.7-0.7-1-1.5-1-2.6c0-0.3,0.1-0.9,0.2-1.6l0.5-2.1v-0.7c0-0.7-0.1-1.1-0.4-1.2h-0.6
		c-0.7,0-1.3,0.4-1.7,1.2c-0.4,0.8-0.6,1.5-0.8,2.2l-0.2,1.5v1.1c0,0.3,0,0.6,0,0.9s0,0.7,0.1,1.2c0.1,0.7,0.3,1.6,0.8,2.7
		c0.5,1.1,1.2,2,2.3,2.6c1.1,0.7,2.3,1,3.6,1c1.5,0,2.8-0.4,3.9-1.1c1-0.7,1.8-1.5,2.3-2.2c0.4-0.6,0.8-1.5,1.2-2.6
		c0.4-1.1,0.6-2.7,0.6-4.6c0-1.8-0.2-3.5-0.6-5c-0.4-1.5-1.2-2.8-2.3-3.8c-1.1-1-2.7-1.5-4.8-1.5c-1.6,0-3,0.4-4.3,1.1
		c-1.3,0.8-2.1,1.9-2.4,3.4h-1.5c0-0.3,0-0.5,0.1-0.7c0-0.1,0.1-0.4,0.3-0.7c0.1-0.3,0.2-0.5,0.2-0.5c0,0,0.2-0.4,0.7-1
		c0.4-0.6,0.9-1.2,1.4-1.5c0.5-0.4,1-0.7,1.6-0.9c0.5-0.2,1.3-0.4,2.2-0.6l2.4-0.1c0.3,0,0.6,0,1,0c0.4,0,0.9,0.1,1.6,0.2
		c0.7,0.1,1.5,0.6,2.6,1.6c1.1,0.9,1.9,2,2.4,3.3c0.5,1.2,0.8,2.5,1,3.9l0.1,4.2c0,1-0.2,2.1-0.6,3.3c-0.4,1.2-0.9,2.4-1.5,3.4
		c-0.6,1-1.6,1.9-3,2.7s-2.8,1.1-4.3,1.1c-1.5,0-2.8-0.3-4-0.8c-1.2-0.5-2.2-1.4-2.8-2.5c-0.7-1.1-1.1-2.3-1.4-3.4
		c-0.2-1.2-0.4-2.4-0.4-3.4c0-1.3,0.1-2.3,0.2-2.9c0.2-0.6,0.4-1.2,0.6-1.6l0.8-1.3c0.3-0.5,0.8-0.8,1.3-1.1
		c0.5-0.3,1.1-0.4,1.7-0.4C1141.6,432.9,1142.2,433.1,1142.7,433.6z"/>
	<path class="st9" d="M1161.2,448.1c-1.6,0-2.9-0.7-4.1-2.1c-1.1-1.4-1.7-3.1-1.7-5.1c0-2,0.6-3.6,1.7-5.1c1.1-1.4,2.5-2.1,4.1-2.1
		c1.6,0,2.9,0.7,4,2.1s1.6,3.1,1.6,5.1c0,2-0.5,3.7-1.6,5.1C1164.1,447.4,1162.8,448.1,1161.2,448.1z M1157,440.9
		c0,1.5,0.4,2.9,1.2,4c0.8,1.1,1.8,1.7,2.9,1.7c1.1,0,2.1-0.6,2.9-1.7s1.2-2.5,1.2-3.9c0-1.5-0.4-2.8-1.2-4
		c-0.8-1.1-1.7-1.7-2.9-1.7c-1.1,0-2.1,0.6-2.9,1.7C1157.4,438.1,1157,439.4,1157,440.9z"/>
	<path class="st9" d="M1184.2,437.3h-1.6v-2c0-1.2,0.3-2.1,1-2.8c0.6-0.7,1.6-1,2.9-1c0.9,0,1.7,0.1,2.1,0.3
		c0.5,0.2,0.9,0.7,1.3,1.3l1.6-0.9c0.2-0.1,0.4-0.2,0.6-0.3s0.5-0.1,1-0.2c0.5-0.1,0.9-0.2,1.2-0.2s0.5,0,0.7,0c0.4,0,0.8,0,1.2,0
		c0.3,0.1,0.7,0.1,1,0.2c0.4,0.1,1,0.3,1.9,0.7c0.9,0.4,1.6,1,2.1,1.8c0.2,0.3,0.4,0.7,0.6,1.1c0.2,0.4,0.4,0.9,0.6,1.4
		c0.2,0.7,0.4,1.6,0.5,2.7l0.1,3.1c0,0.9-0.1,1.7-0.3,2.6c-0.2,0.8-0.6,1.8-1.1,2.7c-0.5,1-1.4,1.7-2.7,2.1s-2.7,0.7-4.5,0.7v-1.5
		c0.3,0,0.7,0,1.1,0c0.5-0.1,1-0.1,1.2-0.1c0.8-0.1,1.5-0.4,2-0.7c0.5-0.4,0.9-0.8,1.3-1.2c0.3-0.4,0.6-1,0.8-1.6l0.5-2.1l0.1-2.2
		c0-0.4,0-0.8,0-1.2c-0.1-0.4-0.1-0.7-0.2-1c0-0.3-0.1-0.5-0.2-0.8s-0.2-0.6-0.4-1c-0.2-0.7-0.5-1.3-0.9-1.8c-0.4-0.6-0.8-1-1.4-1.3
		c-0.5-0.3-1.1-0.6-1.6-0.7c-0.5-0.2-1.1-0.3-1.8-0.3c-0.6,0-1.3,0.1-1.8,0.3l-1.5,0.6c-0.5,0.2-1,0.6-1.6,1v0.6c0.3,0,0.6,0,0.9,0
		s0.6,0,0.9,0c0.5,0,1,0.2,1.6,0.5c0.6,0.2,1.1,0.6,1.5,1.2c0.4,0.6,0.7,1.3,1,2.1c0.3,0.9,0.4,1.9,0.4,3.1c0,0.3,0,0.6,0,1
		c0,0.4-0.1,1-0.2,1.8c-0.1,0.8-0.5,1.7-1.4,2.7c-0.8,1-1.8,1.7-2.9,2c-1.1,0.4-2.2,0.5-3.3,0.5c-1.1,0-2-0.1-2.7-0.4
		c-0.7-0.2-1.4-0.6-2-1.1c-0.6-0.5-1.1-1.2-1.4-2.1c-0.4-0.9-0.5-1.9-0.5-2.8c0-0.6,0.1-1.2,0.3-1.7h-0.7v-1.8l7-5.9l-0.2-0.6
		c-0.1-0.2-0.3-0.4-0.6-0.7l-0.7-0.3l-1.1-0.1c-0.5,0-1,0.2-1.4,0.5s-0.6,1-0.6,2V437.3z M1188.3,437l-5.6,4.3l1.3,0
		c-0.2,0.5-0.3,1.3-0.3,2.3c0,1.2,0.2,2.1,0.5,2.8c0.4,0.8,1,1.4,1.8,1.9c0.8,0.4,1.6,0.7,2.6,0.7h0.8c1.1,0,2.1-0.2,2.8-0.6
		c0.7-0.4,1.3-0.9,1.7-1.4c0.4-0.5,0.7-1.2,0.9-1.9c0.1-0.4,0.2-0.8,0.2-1.2c0-0.4,0.1-0.9,0.1-1.5c0-0.3,0-0.6,0-1
		s-0.1-0.8-0.3-1.3c-0.2-0.7-0.4-1.2-0.8-1.7c-0.3-0.4-0.7-0.8-1.3-1c-0.6-0.2-1.1-0.4-1.7-0.4H1188.3z"/>
	<path class="st9" d="M1205.9,436.8h-1.6c0-1.6,0.3-2.8,0.9-3.8c0.6-1,1.6-1.5,3.1-1.5c0.5,0,0.9,0,1.2,0.1s0.7,0.3,1.2,0.6
		c0.5,0.3,0.7,0.9,0.7,1.7l0.8-0.8c0.1-0.1,0.2-0.2,0.5-0.4c0.3-0.2,0.5-0.4,0.8-0.6c0.7-0.4,1.8-0.6,3.2-0.6c1.3,0,2.5,0.2,3.7,0.7
		c0.8,0.3,1.4,0.6,1.8,1.1c0.4,0.4,0.8,1,1.3,1.8c0.4,0.7,0.7,1.6,0.9,2.7c0.1,0.6,0.2,1.1,0.2,1.7s0.1,1.1,0.1,1.8
		c0,0.7,0,1.3-0.1,2s-0.2,1.3-0.4,2.1c-0.3,1.3-0.9,2.3-1.8,3.2c-0.9,0.8-1.7,1.4-2.4,1.6l-1.7,0.3h-1.4h-0.5h-0.2l0-1.4
		c0.6,0,1.1,0,1.4,0c0.3,0,0.8-0.1,1.3-0.2c0.8-0.2,1.5-0.6,2.1-1.1c0.6-0.6,1-1.2,1.4-2.1c0.4-0.8,0.5-1.8,0.5-2.8
		c0-1.4-0.1-2.7-0.3-4.1c-0.2-1.4-0.6-2.4-1.2-3.2c-0.6-0.7-1.2-1.3-1.9-1.7s-1.6-0.6-2.7-0.6c-0.6,0-1.3,0.1-2,0.3
		c-0.7,0.2-1.3,0.5-1.8,0.9c-0.5,0.4-0.8,0.7-1,1l-0.5,0.8l1.2,0c0.5,0,1.1,0.1,1.8,0.4s1.3,0.7,1.8,1.5c0.5,0.8,0.7,1.6,0.9,2.4
		c0.1,0.8,0.2,1.7,0.2,2.5c0,1.1-0.1,2-0.4,2.8c-0.2,0.8-0.6,1.5-1,2.1c-0.4,0.6-1,1.1-1.6,1.5c-0.6,0.4-1.2,0.7-1.6,0.8l-1.3,0.3
		l-1.4,0.1c-1.6,0-2.9-0.2-3.6-0.7c-0.7-0.5-1.2-0.9-1.6-1.3c-0.3-0.4-0.6-0.9-0.9-1.6c-0.2-0.7-0.4-1.5-0.5-2.5v-3.2v-2.1h1.4
		c0,0.7,0.4,1,1.2,1c0.9,0,1.5-0.3,1.9-0.8l1-1.7l1-2c0-0.7-0.1-1.2-0.2-1.4c-0.1-0.3-0.3-0.6-0.6-0.8c-0.2-0.3-0.7-0.4-1.3-0.4
		c-0.6,0-1,0.1-1.3,0.4c-0.3,0.3-0.5,0.7-0.7,1.2C1205.9,435.1,1205.9,435.9,1205.9,436.8z M1214.6,438.4c-0.3-0.3-0.8-0.6-1.4-0.7
		c-0.6-0.2-1.2-0.2-1.7-0.2h-0.3h-0.2l-1.1,2c-0.4,0.6-0.8,1.1-1.4,1.5c-0.6,0.4-1.2,0.6-2,0.6c-0.3,0-0.5,0-0.7,0l-0.6-0.3
		c0,0.3,0,0.8,0,1.5c0,0.7,0,1.2,0,1.6c0,0.5,0.1,1,0.2,1.4c0.1,0.4,0.3,0.8,0.6,1.2c0.4,0.7,0.9,1.2,1.6,1.5
		c0.7,0.3,1.7,0.5,2.9,0.5c1,0,1.9-0.2,2.8-0.7c0.9-0.5,1.5-1.1,1.9-1.8c0.2-0.4,0.3-0.7,0.4-0.9c0.1-0.3,0.2-0.6,0.3-1l0.2-2.1
		c0-0.8-0.1-1.6-0.3-2.3C1215.5,439.4,1215.1,438.8,1214.6,438.4z"/>
	<path class="st9" d="M1228.6,436.8h-1.6c0-1.6,0.3-2.8,0.9-3.8c0.6-1,1.6-1.5,3.1-1.5c0.5,0,0.9,0,1.2,0.1s0.7,0.3,1.2,0.6
		c0.5,0.3,0.7,0.9,0.7,1.7l0.8-0.8c0.1-0.1,0.2-0.2,0.5-0.4c0.3-0.2,0.5-0.4,0.8-0.6c0.7-0.4,1.8-0.6,3.2-0.6c1.3,0,2.5,0.2,3.7,0.7
		c0.8,0.3,1.4,0.6,1.8,1.1c0.4,0.4,0.8,1,1.3,1.8c0.4,0.7,0.7,1.6,0.9,2.7c0.1,0.6,0.2,1.1,0.2,1.7s0.1,1.1,0.1,1.8
		c0,0.7,0,1.3-0.1,2s-0.2,1.3-0.4,2.1c-0.3,1.3-0.9,2.3-1.8,3.2c-0.9,0.8-1.7,1.4-2.4,1.6l-1.7,0.3h-1.4h-0.5h-0.2l0-1.4
		c0.6,0,1.1,0,1.4,0c0.3,0,0.8-0.1,1.3-0.2c0.8-0.2,1.5-0.6,2.1-1.1c0.6-0.6,1-1.2,1.4-2.1c0.4-0.8,0.5-1.8,0.5-2.8
		c0-1.4-0.1-2.7-0.3-4.1c-0.2-1.4-0.6-2.4-1.2-3.2c-0.6-0.7-1.2-1.3-1.9-1.7s-1.6-0.6-2.7-0.6c-0.6,0-1.3,0.1-2,0.3
		c-0.7,0.2-1.3,0.5-1.8,0.9c-0.5,0.4-0.8,0.7-1,1l-0.5,0.8l1.2,0c0.5,0,1.1,0.1,1.8,0.4s1.3,0.7,1.8,1.5c0.5,0.8,0.7,1.6,0.9,2.4
		c0.1,0.8,0.2,1.7,0.2,2.5c0,1.1-0.1,2-0.4,2.8c-0.2,0.8-0.6,1.5-1,2.1c-0.4,0.6-1,1.1-1.6,1.5c-0.6,0.4-1.2,0.7-1.6,0.8l-1.3,0.3
		l-1.4,0.1c-1.6,0-2.9-0.2-3.6-0.7c-0.7-0.5-1.2-0.9-1.6-1.3c-0.3-0.4-0.6-0.9-0.9-1.6c-0.2-0.7-0.4-1.5-0.5-2.5v-3.2v-2.1h1.4
		c0,0.7,0.4,1,1.2,1c0.9,0,1.5-0.3,1.9-0.8l1-1.7l1-2c0-0.7-0.1-1.2-0.2-1.4c-0.1-0.3-0.3-0.6-0.6-0.8c-0.2-0.3-0.7-0.4-1.3-0.4
		c-0.6,0-1,0.1-1.3,0.4c-0.3,0.3-0.5,0.7-0.7,1.2C1228.7,435.1,1228.6,435.9,1228.6,436.8z M1237.4,438.4c-0.3-0.3-0.8-0.6-1.4-0.7
		c-0.6-0.2-1.2-0.2-1.7-0.2h-0.3h-0.2l-1.1,2c-0.4,0.6-0.8,1.1-1.4,1.5c-0.6,0.4-1.2,0.6-2,0.6c-0.3,0-0.5,0-0.7,0l-0.6-0.3
		c0,0.3,0,0.8,0,1.5c0,0.7,0,1.2,0,1.6c0,0.5,0.1,1,0.2,1.4c0.1,0.4,0.3,0.8,0.6,1.2c0.4,0.7,0.9,1.2,1.6,1.5
		c0.7,0.3,1.7,0.5,2.9,0.5c1,0,1.9-0.2,2.8-0.7c0.9-0.5,1.5-1.1,1.9-1.8c0.2-0.4,0.3-0.7,0.4-0.9c0.1-0.3,0.2-0.6,0.3-1l0.2-2.1
		c0-0.8-0.1-1.6-0.3-2.3C1238.2,439.4,1237.9,438.8,1237.4,438.4z"/>
	<path class="st9" d="M1274.4,447.9l-0.4-0.6l-0.2-0.7c-0.1,0.6-0.3,1.1-0.7,1.6c-0.3,0.5-0.9,1-1.6,1.5c-0.7,0.5-1.8,0.8-3.3,0.8
		c-0.8,0-1.5-0.1-2.1-0.2c-0.6-0.1-1.4-0.6-2.4-1.4c-0.9-0.8-1.5-1.9-1.9-3.4c-0.4-1.5-0.6-2.6-0.6-3.4v-2v-0.8c0-0.5,0-1,0.1-1.4
		c0-0.4,0.2-0.9,0.3-1.4c0.3-1,0.7-1.7,1.1-2.4c0.5-0.6,1-1.2,1.5-1.6c0.5-0.5,1.1-0.7,1.8-0.8l1.5-0.2h1v1.5c-1.1,0-2,0.1-2.6,0.4
		c-0.6,0.2-1.2,0.7-1.7,1.5c-0.2,0.4-0.4,0.7-0.6,1.1c-0.2,0.4-0.3,0.9-0.5,1.5c-0.2,1-0.3,1.9-0.3,2.8c0,0.7,0,1.2,0,1.4
		c0,0.3,0.1,0.7,0.1,1.2c0.1,0.6,0.1,1,0.2,1.3c0,0.3,0.2,0.7,0.3,1.3c0.2,0.6,0.4,1.1,0.7,1.5c0.3,0.4,0.8,0.8,1.4,1.3
		c0.6,0.5,1.5,0.7,2.6,0.7c0.8,0,1.6-0.2,2.3-0.6c0.7-0.4,1.2-0.9,1.5-1.4c0.3-0.5,0.5-1.1,0.6-1.7s0.2-1.1,0.2-1.4
		c0-0.4,0-0.6,0-0.9v-0.5c0-0.2,0-0.4,0-0.6c0-0.2-0.1-0.5-0.2-0.9c-0.1-0.4-0.3-0.7-0.5-1s-0.4-0.5-0.8-0.6
		c-0.3-0.2-0.8-0.2-1.3-0.2h-0.5c-0.1,0-0.3,0-0.4,0c-0.2,0-0.3,0-0.4,0l-0.1,1.3v1.9h-1.5v-3l0.2-2.1c0.1-0.8,0.5-1.7,1-2.7
		c0.6-1,1.3-1.8,2.3-2.2s2.4-0.7,4.2-0.7c1,0,1.9,0.3,2.8,0.8s1.6,1.1,2,1.9c0.5,0.7,0.8,1.6,1,2.5l0.4,2.4l0.1,1.3v0.8
		c0,1.1-0.1,2.2-0.2,3c-0.2,0.9-0.4,1.7-0.8,2.6c-0.4,0.8-0.8,1.4-1.4,2c-0.6,0.6-1.1,1-1.7,1.2c-0.6,0.2-1.1,0.4-1.7,0.5l-1.5,0.1
		h-0.7V449l0.9,0c0.3,0,0.7-0.1,1-0.3c-0.1-0.2-0.2-0.4-0.4-0.4L1274.4,447.9z M1277.9,440.8c0.5,0.1,0.9,0.3,1.3,0.7l0.6,0.8
		l0.1-1.4c0-0.5,0-0.8,0-1.1c0-0.4-0.1-0.8-0.2-1.5c-0.1-0.6-0.2-1.1-0.3-1.4c-0.1-0.3-0.3-0.8-0.6-1.3c-0.4-0.9-0.9-1.5-1.4-1.8
		c-0.6-0.3-1.1-0.5-1.6-0.6l-1.7-0.2c-1,0-1.8,0.1-2.4,0.4c-0.7,0.3-1.2,0.8-1.8,1.8c-0.5,0.9-0.7,1.7-0.8,2.5h1.8
		c0.9,0,1.8,0.3,2.5,1c0.7,0.6,1,1.7,1,3.3c0.6-0.8,1.6-1.3,2.7-1.3L1277.9,440.8z M1276,446.9c0.2,0,0.3,0.1,0.5,0.2
		c0.2,0.1,0.3,0.4,0.4,0.9c0.8-0.4,1.3-0.9,1.6-1.5c0.3-0.6,0.4-1.3,0.4-1.9s-0.2-1.2-0.7-1.6c-0.4-0.4-1-0.6-1.6-0.6
		c-1.3,0-1.9,0.8-1.9,2.4C1274.8,445.7,1275.2,446.4,1276,446.9z"/>
	<path class="st9" d="M1280,431.8h-1.7v-0.4l-0.1-1.1c0-0.3-0.1-0.5-0.2-0.6c-0.1-0.2-0.2-0.4-0.4-0.6c-0.2-0.4-0.6-0.8-1.2-1.1
		c-0.5-0.3-1.2-0.5-2-0.5h-0.8h-0.7h-1.3c-1,0-1.7,0-2.3,0.1c-0.5,0.1-0.9,0.2-1.2,0.3s-0.5,0.3-0.8,0.6c-0.2,0.3-0.4,0.6-0.6,0.9
		l-0.3,1c-0.1,0.4-0.1,0.8-0.1,1.4h-1.7c0-1.2,0.2-2.3,0.6-3.2c0.3-0.8,0.8-1.5,1.5-1.9c0.7-0.4,1.5-0.7,2.5-0.9
		c1-0.1,2.1-0.2,3.2-0.2c1.8,0,3.3,0.2,4.4,0.5c1.1,0.3,1.9,0.9,2.4,1.7c0.1,0.3,0.3,0.7,0.4,1.1c0.1,0.4,0.2,0.8,0.3,1.1
		L1280,431.8z"/>
	<path class="st9" d="M1299.7,450c-0.6,1.2-1.6,2.2-3.1,3c-1.4,0.8-3,1.2-4.7,1.2c-1.2,0-2.3-0.2-3.2-0.5c-0.9-0.4-1.8-0.9-2.6-1.5
		c-0.7-0.5-1.4-1.4-2.1-2.5c-0.3-0.6-0.5-1.1-0.7-1.6s-0.3-1.2-0.5-1.9c-0.1-0.7-0.1-1.3-0.2-1.8c-0.1-0.5-0.1-1-0.1-1.5v-0.8
		c0-0.1,0-0.3,0-0.6c0-0.3,0.1-0.6,0.2-1l0.6-2.5c0.1-0.6,0.5-1.4,1.1-2.3c0.5-0.9,1.1-1.6,1.7-2.2c0.6-0.5,1.4-1,2.3-1.5
		c0.9-0.4,2.2-0.7,3.9-0.7l1.9,0.1c0.6,0.1,1.2,0.3,1.9,0.6s1.4,0.8,2.2,1.6c0.7,0.7,1.2,1.6,1.6,2.8c0.1,0.4,0.2,0.9,0.3,1.3
		c0.1,0.5,0.1,0.9,0.1,1.3c0,1-0.1,1.8-0.3,2.6c-0.2,0.8-0.3,1.4-0.5,1.7c-0.1,0.3-0.3,0.6-0.5,1c-0.2,0.4-0.6,0.8-1,1
		s-1,0.6-1.7,0.9c-0.7,0.3-1.4,0.4-2.1,0.4c-0.9,0-1.8-0.2-2.6-0.6s-1.4-1-1.9-1.9c-0.4-0.8-0.7-1.9-0.7-3.2c0-0.3,0-0.6,0-0.9
		c0-0.3,0.1-0.7,0.3-1.2h-1.6v-1.7h8.4v1.7l-5,0c-0.2,0.7-0.4,1.4-0.4,2c0,0.6,0.1,1.1,0.2,1.5c0.1,0.4,0.4,0.9,0.7,1.2
		c0.3,0.4,0.7,0.7,1.2,0.9c0.5,0.2,1,0.3,1.6,0.3c0.5,0,0.9-0.1,1.4-0.2s0.9-0.5,1.4-0.9c0.4-0.5,0.8-1.1,1-2
		c0.1-0.4,0.2-0.8,0.3-1.3c0.1-0.5,0.1-0.9,0.1-1.3c0-2-0.6-3.6-1.8-4.7c-1.2-1.1-2.8-1.7-4.7-1.7c-1.8,0-3.3,0.5-4.5,1.5
		c-1.2,1-2.1,2.3-2.6,3.8c-0.5,1.5-0.8,3-0.8,4.5c0,1.1,0.1,2.1,0.3,3.1c0.2,1,0.5,1.9,0.9,2.9s1.3,1.8,2.5,2.6
		c1.3,0.8,2.5,1.2,3.7,1.2c1.4,0,2.6-0.2,3.5-0.6c1-0.4,1.8-1,2.4-1.8c0.4-0.4,0.8-1.1,1.1-1.8c0.3-0.8,0.5-1.6,0.5-2.5h1.6
		c0,0.9-0.1,1.6-0.2,2c-0.1,0.4-0.3,0.8-0.4,1C1300.2,449.2,1300,449.5,1299.7,450z"/>
	<path class="st9" d="M1297.5,431.6l-1.6,0l-0.1-6.1h1.7L1297.5,431.6z"/>
	<path class="st9" d="M1318.8,435.8h-0.6h-0.8l0.1-0.8c0-0.5-0.1-0.8-0.3-1.1c-0.2-0.2-0.5-0.5-0.9-0.6c-0.4-0.2-0.9-0.3-1.6-0.3
		c-0.7,0-1.3,0.3-1.9,0.8s-0.8,1.2-0.8,2h4.2c0.5,0,1,0.1,1.4,0.3c0.4,0.2,0.7,0.5,1.1,0.9c0.8,1.1,1.2,2.5,1.2,4.2
		c0,0.5,0,0.9,0,1.2c0,0.3-0.1,0.8-0.2,1.7s-0.5,1.8-1.2,2.8c-0.6,0.9-1.3,1.6-2.1,2.1s-1.5,0.8-1.9,1l-1.7,0.4l-2,0.1
		c-0.9,0-1.7-0.1-2.4-0.3c-0.2,0-0.5-0.1-0.7-0.1c-0.2-0.1-0.5-0.2-0.9-0.3c-0.6-0.2-1.3-0.6-2-1.1c-0.8-0.5-1.4-1.4-1.9-2.5
		s-0.8-2.5-0.8-4c0-1.4,0.2-2.6,0.5-3.5c0.3-0.9,0.8-1.5,1.4-2c0.6-0.4,1.1-0.7,1.5-0.7l1.3-0.2h3.1c0-1.2-0.3-2-0.8-2.3
		s-1.1-0.4-1.5-0.4c-0.6,0-1.1,0.1-1.5,0.3c-0.4,0.2-0.7,0.4-1,0.9s-0.4,1-0.4,1.6h-1.6l0-0.6c0-1.1,0.4-1.9,1.3-2.7
		s1.6-1.1,2.4-1.1c1.2,0,2.3,0.2,3,0.6c0.7,0.3,1.2,1,1.4,2c0.2-0.9,0.7-1.5,1.3-1.9c0.6-0.4,1.2-0.6,1.6-0.7h1.1
		c0.7,0,1.5,0.1,2.1,0.4s1.1,0.7,1.4,1.3c0.3,0.6,0.4,1.2,0.4,1.8L1318.8,435.8z M1315.4,437.1h-4.5h-3.3c-1.2,0-2,0.2-2.7,0.7
		c-0.6,0.5-1,1-1.2,1.7l-0.2,1.4v0.9c0,0.7,0.1,1.5,0.2,2.2c0.1,0.8,0.4,1.5,0.9,2.3c0.4,0.8,1.2,1.4,2.3,1.8s2.4,0.7,3.9,0.7
		c1.2,0,2.2-0.1,3-0.3s1.6-0.7,2.4-1.4c0.8-0.7,1.3-1.6,1.6-2.6s0.5-1.8,0.5-2.6v-0.6c0-1.2-0.2-2.2-0.5-3
		S1316.6,437.1,1315.4,437.1z"/>
	<path class="st9" d="M1350.9,447.1c-0.6,1.4-1.3,2.2-2.1,2.6c-0.4,0.2-0.7,0.3-0.9,0.4c-0.2,0.1-0.5,0.1-0.8,0.2l-1,0.1l-1-0.1
		l-1-0.4c-0.3-0.2-0.4-0.3-0.5-0.3c-0.2-0.1-0.3-0.2-0.4-0.3l-0.7-1.1l-0.2,0.5c-0.1,0.2-0.3,0.4-0.7,0.8c-0.4,0.3-0.9,0.6-1.4,0.8
		c-0.5,0.1-1,0.2-1.5,0.2c-0.6,0-1.3-0.1-2-0.4c-0.7-0.2-1.3-0.7-1.7-1.2s-0.8-1.3-1.1-2s-0.4-1.6-0.5-2.5l-0.2-2.4
		c0-0.8,0.1-2,0.2-3.6c0.2-1.6,0.8-3,1.8-4.3c1.1-1.3,2.1-2.1,3.1-2.3c1-0.2,1.8-0.3,2.3-0.3c0.2,0,0.5,0,0.9,0s0.7,0.1,1.1,0.1v1.4
		h-0.8h-0.8h-0.9c-0.3,0-0.7,0.1-1,0.2c-0.4,0.1-0.8,0.3-1.2,0.6c-0.4,0.3-0.9,0.7-1.3,1.3c-0.4,0.6-0.8,1.4-1.1,2.4
		c-0.3,1.1-0.5,2.3-0.5,3.7c0,0.6,0,1.2,0,1.8c0,0.5,0.1,1.1,0.2,1.8c0.1,0.6,0.3,1.3,0.6,2c0.3,0.7,0.7,1.2,1.3,1.6
		c0.6,0.4,1.2,0.5,1.7,0.5c0.8-0.1,1.5-0.3,1.9-0.8s0.7-1.1,0.8-1.8c0.1-0.6,0.2-1.1,0.2-1.4c0-0.3,0-0.6,0-0.7v-2.7h1.9v2.6v1.9
		c0,0.4,0.1,0.9,0.2,1.4s0.5,0.9,1,1.2c0.5,0.3,1,0.4,1.6,0.4c0.3,0,0.6-0.1,1-0.2c0.4-0.1,0.8-0.4,1.1-0.8c0.4-0.4,0.7-1,1.1-1.9
		c0.4-0.9,0.6-2.1,0.6-3.7c0-0.4,0-0.8-0.1-1.2c-0.1-0.4-0.1-0.7-0.2-1c-0.2-1-0.5-1.7-1-2.2s-1.5-0.6-3.2-0.6h-3.4
		c0-1.5,0.1-2.5,0.3-3.1c0.2-0.6,0.5-1.1,0.9-1.5c0.4-0.3,0.8-0.6,1.4-0.9c0.5-0.2,1.2-0.3,2.1-0.3c1.5,0,2.5,0.4,3,1.1
		c0.5,0.7,0.8,1.3,0.9,1.7l0.2,1.1v0.6h-1.5v-0.5c0-1.8-1-2.7-2.9-2.7c-0.7,0-1.3,0.2-1.7,0.6c-0.5,0.4-0.7,1.2-0.7,2.2h0.5h0.9h0.9
		c0.7,0,1.3,0,1.8,0.1c0.5,0.1,1,0.3,1.6,0.7c0.6,0.4,1,1,1.3,1.8c0.3,0.8,0.4,1.6,0.4,2.6v0.8v0.9
		C1351.7,444.4,1351.4,445.8,1350.9,447.1z"/>
	<path class="st9" d="M1352.3,431.5h1.6c0.3,0,0.6,0,1,0.1c0.4,0.1,0.9,0.2,1.5,0.4c1,0.3,2,1.2,2.7,2.9c0.8,1.7,1.1,3.5,1.1,5.6
		c0,2.2-0.3,4-0.8,5.5c-0.5,1.4-1.2,2.5-2,3.1c-0.7,0.6-1.5,1-2.2,1.1c-0.8,0.2-1.8,0.3-3.1,0.3v-1.5h1.1c0.9,0,1.6-0.1,2.2-0.4
		c0.5-0.3,1-0.7,1.5-1.2c0.5-0.5,0.9-1.4,1.2-2.6s0.5-2.6,0.5-4.1c0-1.5-0.1-2.8-0.4-3.8c-0.3-1-0.8-1.8-1.4-2.5
		c-0.6-0.6-1.2-1-1.8-1.1c-0.5-0.1-1.2-0.2-2-0.2h-0.7V431.5z"/>
	<path class="st9" d="M1365.7,437.3h-1.6v-2c0-1.2,0.3-2.1,1-2.8c0.6-0.7,1.6-1,2.9-1c0.9,0,1.7,0.1,2.1,0.3
		c0.5,0.2,0.9,0.7,1.3,1.3l1.6-0.9c0.2-0.1,0.4-0.2,0.6-0.3s0.5-0.1,1-0.2c0.5-0.1,0.9-0.2,1.2-0.2s0.5,0,0.7,0c0.4,0,0.8,0,1.2,0
		c0.3,0.1,0.7,0.1,1,0.2c0.4,0.1,1,0.3,1.9,0.7c0.9,0.4,1.6,1,2.1,1.8c0.2,0.3,0.4,0.7,0.6,1.1c0.2,0.4,0.4,0.9,0.6,1.4
		c0.2,0.7,0.4,1.6,0.5,2.7l0.1,3.1c0,0.9-0.1,1.7-0.3,2.6c-0.2,0.8-0.6,1.8-1.1,2.7c-0.5,1-1.4,1.7-2.7,2.1s-2.7,0.7-4.5,0.7v-1.5
		c0.3,0,0.7,0,1.1,0c0.5-0.1,1-0.1,1.2-0.1c0.8-0.1,1.5-0.4,2-0.7c0.5-0.4,0.9-0.8,1.3-1.2c0.3-0.4,0.6-1,0.8-1.6l0.5-2.1l0.1-2.2
		c0-0.4,0-0.8,0-1.2c-0.1-0.4-0.1-0.7-0.2-1c0-0.3-0.1-0.5-0.2-0.8s-0.2-0.6-0.4-1c-0.2-0.7-0.5-1.3-0.9-1.8c-0.4-0.6-0.8-1-1.4-1.3
		c-0.5-0.3-1.1-0.6-1.6-0.7c-0.5-0.2-1.1-0.3-1.8-0.3c-0.6,0-1.3,0.1-1.8,0.3l-1.5,0.6c-0.5,0.2-1,0.6-1.6,1v0.6c0.3,0,0.6,0,0.9,0
		s0.6,0,0.9,0c0.5,0,1,0.2,1.6,0.5c0.6,0.2,1.1,0.6,1.5,1.2c0.4,0.6,0.7,1.3,1,2.1c0.3,0.9,0.4,1.9,0.4,3.1c0,0.3,0,0.6,0,1
		c0,0.4-0.1,1-0.2,1.8c-0.1,0.8-0.5,1.7-1.4,2.7c-0.8,1-1.8,1.7-2.9,2c-1.1,0.4-2.2,0.5-3.3,0.5c-1.1,0-2-0.1-2.7-0.4
		c-0.7-0.2-1.4-0.6-2-1.1c-0.6-0.5-1.1-1.2-1.4-2.1c-0.4-0.9-0.5-1.9-0.5-2.8c0-0.6,0.1-1.2,0.3-1.7h-0.7v-1.8l7-5.9l-0.2-0.6
		c-0.1-0.2-0.3-0.4-0.6-0.7l-0.7-0.3l-1.1-0.1c-0.5,0-1,0.2-1.4,0.5s-0.6,1-0.6,2V437.3z M1369.8,437l-5.6,4.3l1.3,0
		c-0.2,0.5-0.3,1.3-0.3,2.3c0,1.2,0.2,2.1,0.5,2.8c0.4,0.8,1,1.4,1.8,1.9c0.8,0.4,1.6,0.7,2.6,0.7h0.8c1.1,0,2.1-0.2,2.8-0.6
		c0.7-0.4,1.3-0.9,1.7-1.4c0.4-0.5,0.7-1.2,0.9-1.9c0.1-0.4,0.2-0.8,0.2-1.2c0-0.4,0.1-0.9,0.1-1.5c0-0.3,0-0.6,0-1
		s-0.1-0.8-0.3-1.3c-0.2-0.7-0.4-1.2-0.8-1.7c-0.3-0.4-0.7-0.8-1.3-1c-0.6-0.2-1.1-0.4-1.7-0.4H1369.8z"/>
	<path class="st9" d="M1381.5,450.2h1.5l-0.1,1l-0.4,1.2c-0.2,0.5-0.7,1.1-1.3,1.7s-1.3,1.1-2.1,1.5c-0.7,0.4-1.6,0.6-2.5,0.8
		c-0.9,0.1-1.9,0.2-3,0.2c-1.5,0-2.8-0.2-3.9-0.6c-1.1-0.4-2-0.9-2.8-1.5c-0.7-0.6-1.2-1.2-1.4-1.7c-0.2-0.5-0.3-1.1-0.3-1.8l0-0.5
		h1.5v0.4l0.2,1c0.1,0.2,0.2,0.4,0.3,0.7c0.2,0.3,0.3,0.5,0.4,0.7c0.4,0.5,1.2,1,2.4,1.3c0.6,0.2,1.2,0.3,1.8,0.4
		c0.6,0.1,1.2,0.1,1.9,0.1c1.2,0,2.4-0.1,3.6-0.4c1.2-0.3,2.1-0.9,2.9-1.7C1381.1,452.1,1381.5,451.2,1381.5,450.2z"/>
	<path class="st9" d="M1384.5,431.5h1.6c0.3,0,0.6,0,1,0.1c0.4,0.1,0.9,0.2,1.5,0.4c1,0.3,2,1.2,2.7,2.9c0.8,1.7,1.1,3.5,1.1,5.6
		c0,2.2-0.3,4-0.8,5.5c-0.5,1.4-1.2,2.5-2,3.1c-0.7,0.6-1.5,1-2.2,1.1c-0.8,0.2-1.8,0.3-3.1,0.3v-1.5h1.1c0.9,0,1.6-0.1,2.2-0.4
		c0.5-0.3,1-0.7,1.5-1.2c0.5-0.5,0.9-1.4,1.2-2.6s0.5-2.6,0.5-4.1c0-1.5-0.1-2.8-0.4-3.8c-0.3-1-0.8-1.8-1.4-2.5
		c-0.6-0.6-1.2-1-1.8-1.1c-0.5-0.1-1.2-0.2-2-0.2h-0.7V431.5z"/>
	<path class="st9" d="M1396.7,438.3c0.3-0.2,0.7-0.4,1.1-0.5l0.9-0.3h5.6c0-0.5-0.1-1-0.3-1.4c-0.2-0.4-0.5-0.8-1-1.2
		c-0.5-0.4-1.2-0.6-2.3-0.6c-0.7,0-1.5,0.2-2.2,0.6c-0.4,0.3-0.7,0.7-0.9,1.2c-0.2,0.5-0.3,1-0.3,1.6h-1.6l0-1
		c0-0.4,0.1-0.8,0.2-1.2c0.1-0.4,0.4-0.8,0.9-1.3c0.5-0.4,1-0.8,1.6-1c0.6-0.2,1.4-0.4,2.2-0.4c1.7,0,3,0.5,3.9,1.5s1.4,2.3,1.4,3.8
		v0.5v0.5h-5.4c-0.8,0-1.4,0-1.8,0.1c-0.5,0.1-0.9,0.3-1.3,0.6c-0.4,0.3-0.7,0.8-0.9,1.5c-0.1,0.3-0.1,0.7-0.2,1
		c0,0.3-0.1,0.7-0.1,1c0,0.5,0.1,1,0.2,1.5s0.4,0.9,0.7,1.3c0.5,0.7,1.2,1.3,1.9,1.8c0.7,0.3,1.4,0.6,2.2,0.7l2.2,0.1
		c1.5,0,2.9-0.4,4-1.1s2-1.6,2.5-2.6c0.5-1,0.8-2.1,1-3.3c0.2-1.2,0.3-2.4,0.3-3.5c0-1.5-0.2-3-0.5-4.5c-0.4-1.5-1-2.6-1.8-3.4
		c-0.9-0.8-1.9-1.4-3-1.8c-1.1-0.3-2.1-0.5-3.1-0.5c-0.3,0-0.5,0-0.7,0c-0.2,0-0.5,0-0.9,0.1c-0.4,0.1-0.7,0.1-1,0.2
		c-0.2,0.1-0.6,0.2-1,0.4c-0.5,0.2-1,0.7-1.6,1.3c-0.5,0.7-0.8,1.3-0.9,1.8h-1.5c0-0.8,0.3-1.6,0.9-2.5c0.6-0.8,1.5-1.5,2.6-2
		s2.5-0.8,4-0.8c1,0,2.1,0.1,3.4,0.4c1.3,0.3,2.4,0.8,3.2,1.7c0.9,0.8,1.7,1.8,2.4,3.2c0.7,1.4,1,3.1,1,5.1c0,1.7-0.1,3.2-0.2,4.6
		c-0.2,1.4-0.5,2.6-1,3.6s-1.2,1.9-2.1,2.7c-0.8,0.6-1.5,1.1-2.3,1.5c-0.3,0.1-0.6,0.2-0.9,0.3c-0.4,0.1-0.7,0.2-1.1,0.3l-2.2,0.1
		c-1.3,0-2.6-0.2-3.8-0.6c-1.2-0.4-2.3-1.2-3.2-2.5c-0.9-1.3-1.4-2.9-1.4-4.7c0-1,0.2-1.8,0.5-2.6S1396.1,438.7,1396.7,438.3z"/>
</g>
</svg>
